<svg id="Component_46_2" data-name="Component 46 – 2" xmlns="http://www.w3.org/2000/svg" xmlns:xlink="http://www.w3.org/1999/xlink" width="34.211" height="34.924" viewBox="0 0 34.211 34.924">
  <defs>
    <linearGradient id="linear-gradient" x1="0.5" y1="0.001" x2="0.5" y2="1.05" gradientUnits="objectBoundingBox">
      <stop offset="0" stop-color="#0facff"/>
      <stop offset="0.368" stop-color="#088af0"/>
      <stop offset="0.774" stop-color="#026ae2"/>
      <stop offset="1" stop-color="#005fdd"/>
    </linearGradient>
  </defs>
  <path id="Path_511" data-name="Path 511" d="M1515.71,3136.69v.713a17.106,17.106,0,0,1-15,16.975,16.654,16.654,0,0,1-2.105.13A17.081,17.081,0,0,1,1481.5,3137.4v-.713a17.106,17.106,0,0,1,34.211,0Z" transform="translate(-1481.499 -3119.585)" fill="url(#linear-gradient)"/>
  <path id="Path_512" data-name="Path 512" d="M1571.619,3207.891v2.707h4.111l-.663,4.5h-3.448v10.627a16.7,16.7,0,0,1-2.106.129,17.293,17.293,0,0,1-2.669-.206V3215.1h-3.936l.077-4.5h3.859V3206.7c0-2.887,2.6-6.292,8.886-4.876v3.781l-1.908.036A2.134,2.134,0,0,0,1571.619,3207.891Z" transform="translate(-1552.407 -3190.932)" fill="#fff"/>
</svg>
