<svg id="Group_68" data-name="Group 68" xmlns="http://www.w3.org/2000/svg" width="34.211" height="34.924" viewBox="0 0 34.211 34.924">
  <rect id="Rectangle_66" data-name="Rectangle 66" width="34.211" height="34.924" rx="17.106" transform="translate(0 0)" fill="#fffc00"/>
  <g id="Group_67" data-name="Group 67" transform="translate(6.378 6.333)">
    <path id="Path_513" data-name="Path 513" d="M818.724,3193.148h-.112a5.057,5.057,0,0,1-2.615-.725l-.049-.029c-.224-.135-.409-.247-.524-.314a4.2,4.2,0,0,0-1.8-.568c-.439-.032-.8-.062-1.083-.09-.82-.079-1.3-.28-1.35-1.07a1.317,1.317,0,0,0-.022-.2.184.184,0,0,0-.031-.012l-.11-.031a12.579,12.579,0,0,1-1.624-.539c-.722-.311-.822-.776-.817-1.025s.122-.71.857-.995a6.335,6.335,0,0,0,3.266-3.369c.162-.357.08-.406.026-.44l-.351-.212a7.028,7.028,0,0,1-1.632-1.19,1.289,1.289,0,0,1-.245-1.4,1.354,1.354,0,0,1,1.424-.735,5.807,5.807,0,0,1,1.058.3,19.629,19.629,0,0,1-.021-2.122,4.888,4.888,0,0,1,1.712-3.777,6.188,6.188,0,0,1,4.018-1.372h.06c3.317,0,5.726,2.165,5.73,5.149a19.667,19.667,0,0,1-.022,2.122,5.8,5.8,0,0,1,1.059-.3,1.309,1.309,0,0,1,.21-.017,1.328,1.328,0,0,1,1.213.752,1.29,1.29,0,0,1-.246,1.4,7.032,7.032,0,0,1-1.631,1.189c-.117.07-.234.141-.349.212-.055.034-.138.084.024.441a6.336,6.336,0,0,0,3.267,3.369c.733.284.851.745.856.994s-.1.713-.817,1.025a12.623,12.623,0,0,1-1.623.539l-.109.03-.033.012a1.336,1.336,0,0,0-.022.2c-.046.79-.53.99-1.351,1.07-.278.027-.643.057-1.085.089a4.2,4.2,0,0,0-1.8.567c-.116.068-.3.179-.525.315l-.049.029a5.057,5.057,0,0,1-2.613.724Z" transform="translate(-807.995 -3172.643)" fill="#fff"/>
    <path id="Path_514" data-name="Path 514" d="M814.793,3169.856c2.84,0,5.143,1.764,5.143,4.571v.01c.06.954-.024,1.963-.059,2.92.245-.005,1.118-.435,1.769-.532a.821.821,0,0,1,.124-.009.686.686,0,0,1,.522,1.182,9.061,9.061,0,0,1-1.842,1.283c-.348.215-.478.576-.2,1.182a6.908,6.908,0,0,0,3.588,3.673c.636.247.644.665.019.935a12.964,12.964,0,0,1-1.657.542.582.582,0,0,0-.428.371c-.161.571.2.792-.877.9-.311.031-.7.061-1.071.089a4.766,4.766,0,0,0-2.057.647c-.124.073-.33.2-.578.347a4.464,4.464,0,0,1-2.311.641h-.222a4.465,4.465,0,0,1-2.312-.641c-.248-.149-.454-.274-.578-.347a4.766,4.766,0,0,0-2.057-.647c-.374-.028-.76-.058-1.071-.089-1.073-.1-.716-.325-.877-.9a.582.582,0,0,0-.428-.371,12.964,12.964,0,0,1-1.657-.542c-.625-.27-.617-.688.019-.935a6.908,6.908,0,0,0,3.588-3.673c.275-.607.148-.968-.2-1.182a9.063,9.063,0,0,1-1.842-1.283.686.686,0,0,1,.522-1.182.79.79,0,0,1,.124.009c.651.1,1.525.527,1.769.532-.036-.957-.119-1.966-.059-2.92v-.01a4.27,4.27,0,0,1,1.506-3.338,5.586,5.586,0,0,1,3.637-1.232h.06m0-1.173h-.06a6.768,6.768,0,0,0-4.4,1.511,5.457,5.457,0,0,0-1.92,4.206c-.026.445-.025.892-.012,1.334-.117-.028-.235-.052-.353-.07a2.02,2.02,0,0,0-.3-.022,1.914,1.914,0,0,0-1.746,1.094,1.861,1.861,0,0,0,.333,2.024,7.348,7.348,0,0,0,1.773,1.309l.041.025a5.7,5.7,0,0,1-2.892,2.95,1.6,1.6,0,0,0-.058,3.1,11.745,11.745,0,0,0,1.458.5,1.768,1.768,0,0,0,1.857,1.4c.28.027.651.058,1.1.091a3.6,3.6,0,0,1,1.545.487c.116.068.3.18.526.316l.043.025a5.64,5.64,0,0,0,2.918.809h.222a5.639,5.639,0,0,0,2.917-.809l.043-.025c.224-.135.41-.248.524-.315a3.608,3.608,0,0,1,1.552-.489c.443-.033.813-.063,1.1-.091a1.767,1.767,0,0,0,1.855-1.4,11.771,11.771,0,0,0,1.459-.5,1.6,1.6,0,0,0-.061-3.1,5.7,5.7,0,0,1-2.891-2.949l.041-.025a7.34,7.34,0,0,0,1.775-1.311,1.859,1.859,0,0,0,.331-2.022,1.914,1.914,0,0,0-1.746-1.094,2.013,2.013,0,0,0-.3.023c-.116.017-.233.041-.35.069.013-.442.014-.889-.012-1.334-.014-3.314-2.666-5.717-6.316-5.717Z" transform="translate(-804.036 -3168.683)"/>
  </g>
</svg>
