<svg id="Component_45_2" data-name="Component 45 – 2" xmlns="http://www.w3.org/2000/svg" width="34.211" height="34.924" viewBox="0 0 34.211 34.924">
  <rect id="Rectangle_62" data-name="Rectangle 62" width="34.211" height="34.924" rx="17.106" fill="#1a9ada"/>
  <g id="Group_57" data-name="Group 57" transform="translate(8.42 11.29)">
    <path id="Path_507" data-name="Path 507" d="M1910.706,3214.161c-.546-.161-.655-.807-.13-1.028l13.752-5.851c1.068-.458,1.825.109,1.713.866q-.816,5.467-1.634,10.933a1.356,1.356,0,0,1-2.113.916l-4.852-3.356a.853.853,0,0,1-.112-1.312l4.7-4.6a.213.213,0,0,0-.269-.329l-6.044,4.126a2.922,2.922,0,0,1-2.474.388Z" transform="translate(-1910.235 -3207.119)" fill="#fff"/>
  </g>
</svg>
