<svg id="Component_44_2" data-name="Component 44 – 2" xmlns="http://www.w3.org/2000/svg" width="34.211" height="34.924" viewBox="0 0 34.211 34.924">
  <rect id="Rectangle_65" data-name="Rectangle 65" width="34.211" height="34.924" rx="17.106" fill="#0c9af2"/>
  <path id="Path_510" data-name="Path 510" d="M2288.689,3204.37a3.057,3.057,0,0,0,1.615-2.1,7.269,7.269,0,0,1-2.427.9l-.041,0a3.818,3.818,0,0,0-6.507,3.414l-.044.022c-4.173.179-7.756-3.94-7.756-3.94a3.992,3.992,0,0,0,1.093,5.158,4.915,4.915,0,0,1-1.63-.448,3.736,3.736,0,0,0,2.955,3.762,6.334,6.334,0,0,1-1.63.055,3.506,3.506,0,0,0,3.475,2.649,7.507,7.507,0,0,1-5.495,1.585,10.826,10.826,0,0,0,10.528.708l.789-.454a10.5,10.5,0,0,0,5.249-8.6l.064-1.356a5.446,5.446,0,0,0,1.878-1.856A8.914,8.914,0,0,1,2288.689,3204.37Z" transform="translate(-2264.059 -3191.356)" fill="#fff"/>
</svg>
