<svg xmlns="http://www.w3.org/2000/svg" width="781.255" height="359.161" viewBox="0 0 781.255 359.161">
  <g id="Group_106" data-name="Group 106" transform="translate(0)">
    <path id="Path_380" data-name="Path 380" d="M425.2,186.428l-.162-.007a4.044,4.044,0,0,0-4.2,3.817l-2.283,40.628,8.245.337,2.275-40.5a4.044,4.044,0,0,0-3.807-4.268Z" transform="translate(-65.895 -29.349)" fill="#3b6b3b"/>
    <path id="Path_381" data-name="Path 381" d="M428.817,207.224l.927-16.524a4.044,4.044,0,0,0-3.808-4.267l-.067,0-.162-.007a4.034,4.034,0,0,0-2.891,1.056C422.94,196.348,425.37,203.911,428.817,207.224Z" transform="translate(-66.566 -29.349)" fill="#3f773f"/>
    <path id="Path_382" data-name="Path 382" d="M407.154,176.906a2.859,2.859,0,1,0-5.716.147v.021l1.156,39.594h5.722Z" transform="translate(-63.2 -27.413)" fill="#4e944f"/>
    <path id="Path_383" data-name="Path 383" d="M428.814,218.419H391l2.985,48.758h32.588Z" transform="translate(-61.557 -34.387)" fill="#2d2c2b"/>
    <path id="Path_384" data-name="Path 384" d="M424.577,261.43c-12.082,1.725-24.5-15.226-27.728-37.861-.248-1.738-.415-3.455-.542-5.149H391l2.986,48.757h32.588l.291-6.319A12.061,12.061,0,0,1,424.577,261.43Z" transform="translate(-61.557 -34.387)" fill="#383736"/>
    <path id="Path_385" data-name="Path 385" d="M81.751,123.725c78.912,3.241,103.814,53.159,115.709,119.342l-176.7,32.86C.585,203.387-10.541,119.933,81.751,123.725Z" transform="translate(-1.079 -19.459)" fill="#4e944f"/>
    <path id="Path_386" data-name="Path 386" d="M761.945,129.708c-81.066,0-104.383,48.049-113.565,112.606l183.382,39.424C849.168,211.267,856.757,129.708,761.945,129.708Z" transform="translate(-102.078 -20.42)" fill="#4e944f"/>
    <path id="Path_387" data-name="Path 387" d="M744.672,129.708c-81.066,0-104.385,48.049-113.565,112.606L814.49,281.738C831.889,211.267,839.484,129.708,744.672,129.708Z" transform="translate(-99.359 -20.42)" fill="#3b6b3b"/>
    <path id="Path_388" data-name="Path 388" d="M647.528,93.638s-31.706,43.328-32.2,73.913L620,210.879c18.423,2.8,38.183,1.274,48.844-55.052S647.528,93.638,647.528,93.638Z" transform="translate(-96.875 -14.742)" fill="#3f773f"/>
    <path id="Path_389" data-name="Path 389" d="M648.2,93.638s-1.088,1.489-2.855,4.093c6.051,9.5,6.371,31.129-.092,55.207-5.948,22.149-16.025,40.365-25.637,48.132l1.056,9.81c18.423,2.8,38.183,1.274,48.844-55.052S648.2,93.638,648.2,93.638Z" transform="translate(-97.55 -14.742)" fill="#4e944f"/>
    <path id="Path_390" data-name="Path 390" d="M669.963,226.874c11.988-51.559-28.7-60.7-36.328-83.835-4.485-13.6-1.479-50.757,19.254-58.575,29.79-11.233,64.226-4.844,91.812,16.093C778.221,126,804.378,188.689,784.76,228.972S669.963,226.874,669.963,226.874Z" transform="translate(-99.473 -12.436)" fill="#3f773f"/>
    <path id="Path_391" data-name="Path 391" d="M692.821,246.873c11.354-3.96,10.357-24.34-3.154-48.469-14.864-26.541-39.237-47.569-54.442-46.959a13.828,13.828,0,0,0-2.122.253,26.9,26.9,0,0,0,.734,2.747c7.629,23.133,44.246,34.819,36.328,83.835C670.165,238.279,679.452,242.415,692.821,246.873Z" transform="translate(-99.673 -23.84)" fill="#4e944f"/>
    <path id="Path_392" data-name="Path 392" d="M745.834,100.561c-27.585-20.938-62.022-27.326-91.812-16.093-6.779,2.556-11.652,8.257-15,15.239a37.826,37.826,0,0,1,8.715-5.295c28.071-12.143,65.545,12.038,83.7,54.008,16.667,38.531,11.244,78.639-11.472,94.355,26.559,5.793,55.973,6.643,65.928-13.8C805.512,188.693,779.357,126.007,745.834,100.561Z" transform="translate(-100.605 -12.436)" fill="#4e944f"/>
    <g id="Group_43" data-name="Group 43" transform="translate(325.216 235.526)">
      <path id="Path_393" data-name="Path 393" d="M440.268,280.281l-3.143,121.147h-1.742l-4.229-121.894Z" transform="translate(-393.095 -279.534)" fill="#4e944f"/>
      <path id="Path_394" data-name="Path 394" d="M464.865,280.281l11.691,121.147h-1.742L455.661,279.534Z" transform="translate(-396.953 -279.534)" fill="#4e944f"/>
      <path id="Path_395" data-name="Path 395" d="M397.674,280.281,385.983,401.428h1.742l19.155-121.894Z" transform="translate(-385.983 -279.534)" fill="#4e944f"/>
    </g>
    <rect id="Rectangle_39" data-name="Rectangle 39" width="67.166" height="9.204" transform="translate(331.435 237.516)" fill="#4e944f"/>
    <rect id="Rectangle_40" data-name="Rectangle 40" width="115.094" height="8.956" transform="translate(307.47 231.214)" fill="#edb174"/>
    <rect id="Rectangle_41" data-name="Rectangle 41" width="210.047" height="12.936" transform="translate(513.557 306.921)" fill="#4e944f"/>
    <path id="Path_396" data-name="Path 396" d="M860.746,369.735l2.724,47.635h-2.734S855.205,378,838.414,371.2Z" transform="translate(-131.996 -58.209)" fill="#4e944f"/>
    <path id="Path_397" data-name="Path 397" d="M788.088,369.735l-2.7,47.635H788.1s5.49-39.372,22.16-46.173Z" transform="translate(-123.647 -58.209)" fill="#4e944f"/>
    <path id="Path_398" data-name="Path 398" d="M675.036,369.735l2.77,47.635h-2.781S669.4,378,652.318,371.2Z" transform="translate(-102.698 -58.209)" fill="#4e944f"/>
    <path id="Path_399" data-name="Path 399" d="M601.128,369.735,598.38,417.37h2.755S606.721,378,623.674,371.2Z" transform="translate(-94.206 -58.209)" fill="#4e944f"/>
    <path id="Path_400" data-name="Path 400" d="M781.055,294.316H653.39c-14.147-23.881-10.524-91.544-57.286-91.544-43.85,0-53.046,22.885-53.046,76.287,0,47.106,56.583,67.663,56.583,67.663H812.177Z" transform="translate(-85.497 -31.923)" fill="#3b6b3b"/>
    <path id="Path_401" data-name="Path 401" d="M653.389,294.941H593.8c-12.268-20.71-2.131-82.5-21.709-88.2-23.413,8.089-29.035,31.187-29.035,72.94,0,47.106,56.583,67.663,56.583,67.663H772.063c79.454-51.132,19.463-56.1-31.12-52.408Z" transform="translate(-85.496 -32.549)" fill="#4e944f"/>
    <path id="Path_402" data-name="Path 402" d="M673.138,330.046c15.634-6.784,39.65-12.169,66.731-14.2a267.61,267.61,0,0,1,43.181.065,5.367,5.367,0,0,0,.495-2.4c-.391-9.256-27.208-14.77-59.9-12.319s-58.873,11.944-58.48,21.2C665.292,325.383,668.189,327.979,673.138,330.046Z" transform="translate(-104.72 -47.327)" fill="#3b6b3b"/>
    <path id="Path_403" data-name="Path 403" d="M679.436,306.63H650.149l10.339,56.442h13.489Z" transform="translate(-102.357 -48.274)" fill="#3b6b3b"/>
    <path id="Path_404" data-name="Path 404" d="M752.322,306.63H723.036l10.338,56.442h13.489Z" transform="translate(-113.831 -48.274)" fill="#3b6b3b"/>
    <path id="Path_405" data-name="Path 405" d="M90.093,294.5H209.2c11.6-23.825,3.7-91.334,47.333-91.334,40.912,0,51.021,22.833,54.589,76.111,3.148,47-48.269,67.508-48.269,67.508H64.56Z" transform="translate(-10.164 -31.985)" fill="#4e944f"/>
    <rect id="Rectangle_42" data-name="Rectangle 42" width="192.562" height="12.936" transform="translate(57.029 306.921)" fill="#4e944f"/>
    <path id="Path_406" data-name="Path 406" d="M298,369.735l2.5,47.635h-2.506S292.919,378,277.526,371.2Z" transform="translate(-43.692 -58.209)" fill="#4e944f"/>
    <path id="Path_407" data-name="Path 407" d="M231.392,369.735l-2.48,47.635H231.4S236.434,378,251.713,371.2Z" transform="translate(-36.039 -58.209)" fill="#4e944f"/>
    <path id="Path_408" data-name="Path 408" d="M127.751,369.735l2.54,47.635h-2.55S122.583,378,106.925,371.2Z" transform="translate(-16.834 -58.209)" fill="#4e944f"/>
    <path id="Path_409" data-name="Path 409" d="M60,369.735,57.474,417.37H60S65.122,378,80.665,371.2Z" transform="translate(-9.048 -58.209)" fill="#4e944f"/>
    <path id="Path_410" data-name="Path 410" d="M179.508,110.656c41.791,14.261,62.687,74.3,66.669,77.614s-1.99,44.445-18.574,39.8S179.508,110.656,179.508,110.656Z" transform="translate(-28.261 -17.421)" fill="#4e944f"/>
    <path id="Path_411" data-name="Path 411" d="M191.222,158.346s-1.075-19.275-8.819-33.371c-7.686-13.987-29.987-29.1-38.2-33S103.745,79.7,82.525,93.726c-14.309,9.454-8.472,87.948,34.41,165.363l92-28.479C208.308,202.1,191.222,158.346,191.222,158.346Z" transform="translate(-11.891 -13.526)" fill="#4e944f"/>
    <path id="Path_412" data-name="Path 412" d="M190.975,159.127c6.734,31.268-5.025,67.773-20.6,72.8-32.262,10.418-71-26.269-73.035-90.239-.818-25.67-22.28-23.813-17.43-43.392-11.4,17.517-6.789,98.342,33.45,170.973l95.42-36.706C208.562,222.856,193.679,170.038,190.975,159.127Z" transform="translate(-11.729 -15.475)" fill="#3f773f"/>
    <path id="Path_413" data-name="Path 413" d="M105.87,98.145c-.285-19.969-32.439-10.6-57.364,10.6-28.25,24.032-39.422,67.3-28.875,82.023l53.991-32.482c-5.948-5.573,3.672-9.98,8.337-13.668C91.528,137.058,106.313,129.3,105.87,98.145Z" transform="translate(-2.475 -13.717)" fill="#4e944f"/>
    <path id="Path_414" data-name="Path 414" d="M91.6,142.824c-22.047,17.952-53.713,33.844-66.141,25.182-3.209-2.236-1.329-13.705-1.945-17.378-8.65,19.357-10.3,38.926-3.876,47.892l55.937-30.8c-5.948-5.573,1.725-11.666,6.389-15.354,5.151-4.07,11.81-8.2,16.795-16.009A95.452,95.452,0,0,1,91.6,142.824Z" transform="translate(-2.477 -21.468)" fill="#3f773f"/>
    <path id="Path_415" data-name="Path 415" d="M69.735,171.456c-7.015-12.418-25.1-15.479-40.4-6.837s-22.016,25.714-15,38.132,25.1,15.48,40.4,6.839S76.749,183.879,69.735,171.456Z" transform="translate(-1.819 -25.143)" fill="#eadfce"/>
    <path id="Path_416" data-name="Path 416" d="M72.773,206.654c-16.93.236-47.245,3.813-52.3-3.09s-2.627-34.533,18.75-39.33c27.689-6.213,41.656,18.3,43.485,22.54C86.489,195.532,83.482,206.5,72.773,206.654Z" transform="translate(-2.872 -25.698)" fill="#edb984"/>
    <path id="Path_417" data-name="Path 417" d="M81.565,187.482c-5.308,4.971-13.22,8.944-22.479,10.733-18.4,3.56-35.127-2.86-37.346-14.335a13.3,13.3,0,0,1-.21-1.9c-4.392,9.474-4,20.515-1.054,24.534,5.055,6.9,35.366,3.326,52.3,3.09,10.709-.149,13.716-11.122,9.942-19.879A25.121,25.121,0,0,0,81.565,187.482Z" transform="translate(-2.873 -28.65)" fill="#e79b69"/>
    <path id="Path_418" data-name="Path 418" d="M169.006,249.983c-25.871-12.271-41.461,4.976-41.461,4.976l11.941,46.435h99.837L266,244.506C234.348,238.541,194.877,262.257,169.006,249.983Z" transform="translate(-20.08 -38.339)" fill="#2d2c2b"/>
    <path id="Path_419" data-name="Path 419" d="M193.012,253.349a122.838,122.838,0,0,1-21.245,9.812c-14.851,5.27-29.1,7.422-39.708,6.583L140.2,301.4h99.837l26.677-56.889C243.531,240.137,216.166,251.673,193.012,253.349Z" transform="translate(-20.791 -38.339)" fill="#3d3c3b"/>
    <path id="Path_420" data-name="Path 420" d="M223.222,294.316H103.485c-13.267-23.881-9.87-91.544-53.732-91.544C8.624,202.772,0,225.657,0,279.059c0,47.106,53.069,67.663,53.069,67.663H252.41Z" transform="translate(0 -31.923)" fill="#4e944f"/>
    <path id="Path_421" data-name="Path 421" d="M223.593,311.421c5.17,16.546,15.587,33.709,30.729,52.408H285.3q-.034-2.1-.073-4.278l-26.805-48.128Z" transform="translate(-35.201 -49.028)" fill="#3b6b3b"/>
    <path id="Path_422" data-name="Path 422" d="M119.933,304.165c-4.907-8.833-7.536-23.657-11.122-38.83-.016.039-.037.072-.053.109-9.736,23-2.493,55.983,17.953,91.128h30.713c3.072-15.84,6.741-35.16,9.347-52.408Z" transform="translate(-16.449 -41.773)" fill="#3b6b3b"/>
    <path id="Path_423" data-name="Path 423" d="M26.73,277.223c-1.011-42.044,3.51-65.653,24.191-74.4-.394-.011-.765-.056-1.169-.056C8.624,202.771,0,225.656,0,279.058c0,47.106,53.069,67.663,53.069,67.663h28.4S27.889,325.606,26.73,277.223Z" transform="translate(0 -31.923)" fill="#3b6b3b"/>
    <path id="Path_424" data-name="Path 424" d="M237.624,242.735c-18.09-2.7-11.537-37.728,14.094-41.707,15.787-2.451,28.614,4.044,34.087,7.144s1.067,24.128-11.122,27.72S248.171,244.312,237.624,242.735Z" transform="translate(-35.796 -31.563)" fill="#edb984"/>
    <path id="Path_425" data-name="Path 425" d="M297.388,251.632c-12.264-14.324-53.84-10.271-53.84,15.637,0,36.189,28.336,72.338,80.374,118.777l2.171-.741C323.648,380.365,309.652,265.959,297.388,251.632Z" transform="translate(-38.343 -38.328)" fill="#2d2c2b"/>
    <path id="Path_426" data-name="Path 426" d="M284.316,323.653c-10.663-33.261-11.286-64.387-2.972-79.622-16.667-2.771-41.234,4.83-41.234,23.536,0,32.648,25.968,64.974,68.689,105.142C299.436,360.5,290.652,343.417,284.316,323.653Z" transform="translate(-37.802 -38.332)" fill="#3d3c3b"/>
    <path id="Path_427" data-name="Path 427" d="M359.917,422.594H333.134s0-10.448,5.917-11.691S359.917,422.594,359.917,422.594Z" transform="translate(-52.447 -64.677)" fill="#f4e4d4"/>
    <path id="Path_428" data-name="Path 428" d="M173.066,257.588c-10.947-14.43-53.88-21.344-58.872,4.612-5.791,30.1,21.41,77.279,69.175,124.047l2.238-.746C183.615,380.526,184.011,272.015,173.066,257.588Z" transform="translate(-17.857 -38.53)" fill="#2d2c2b"/>
    <path id="Path_429" data-name="Path 429" d="M142.778,305.43c-8.312-22.288-13.192-41.5-15.241-58.182-6.677,2.5-11.809,7.367-13.343,15.349-5.791,30.1,21.41,77.279,69.175,124.047l2.238-.746a31.319,31.319,0,0,1-.623-5.729C172.176,368.976,155.5,339.528,142.778,305.43Z" transform="translate(-17.857 -38.925)" fill="#3d3c3b"/>
    <path id="Path_430" data-name="Path 430" d="M212.81,422.594H191.416s0-10.448,4.728-11.691S212.81,422.594,212.81,422.594Z" transform="translate(-30.136 -64.677)" fill="#f4e4d4"/>
    <path id="Path_431" data-name="Path 431" d="M286.8,206.01c-1.538-8.2-.451-15.871,1.015-17.2s6.081.878,6.276,3.769.551,11.029,2.131,14.853C297.326,210.1,287.375,209.064,286.8,206.01Z" transform="translate(-45.035 -29.663)" fill="#edb984"/>
    <path id="Path_432" data-name="Path 432" d="M199.249,244.132l40.178-81,51.937,1.132,1.415,1.971-42.337,76.341L200.664,246.1Z" transform="translate(-31.369 -25.683)" fill="#3b6b3b"/>
    <path id="Path_433" data-name="Path 433" d="M200.93,246.472l40.179-81,51.937,1.132-40.923,78.312Z" transform="translate(-31.634 -26.051)" fill="#4e944f"/>
    <ellipse id="Ellipse_3" data-name="Ellipse 3" cx="32.59" cy="28.627" rx="32.59" ry="28.627" transform="translate(495.947 202.361) rotate(-86.05)" fill="#3f773f"/>
    <path id="Path_434" data-name="Path 434" d="M620.844,165.306a25.5,25.5,0,0,0-5.277.865c4.161,5.807,6.855,14.913,6.855,25.183,0,17.546-7.828,31.771-17.483,31.771a9.768,9.768,0,0,1-1.819-.169,25.99,25.99,0,0,0,19.441,7.42c15.813-.86,28.25-16.123,27.775-34.092S636.659,164.445,620.844,165.306Z" transform="translate(-94.952 -26.019)" fill="#3f773f"/>
    <path id="Path_435" data-name="Path 435" d="M645.393,390.025c-36.643-50.048-47.419-128.844-44.187-139.746s81.376-29.005,114.271-8.678,12.9,58.236-10.272,57.739-58.2.993-58.2.993Z" transform="translate(-94.566 -36.586)" fill="#3d3c3b"/>
    <path id="Path_436" data-name="Path 436" d="M717.47,241.6c-26.27-16.229-81.36-7.951-104.146,1.592,12.657,2.75,17.1,3.838,21.177,21.919,6.19,27.492,10.2,96.737,12.47,124.329.141.194.273.4.414.59L649,300.334s35.026-1.487,58.2-.991S750.365,261.921,717.47,241.6Z" transform="translate(-96.559 -36.587)" fill="#2d2c2b"/>
    <path id="Path_437" data-name="Path 437" d="M719.582,389.885c-36.643-50.048-47.42-128.844-44.187-139.746s76.909-30,109.806-9.676,15.75,62.2-7.422,61.71S721.2,300.19,721.2,300.19Z" transform="translate(-106.246 -36.447)" fill="#3d3c3b"/>
    <path id="Path_438" data-name="Path 438" d="M790.074,240.464c-20.126-12.435-55.515-10.111-80.7-3.938-6.929,1.7-2.6,46.678,3.016,74.9,5.545,27.882,7.89,53.4,7.126,71.263,1.6,2.443,3.229,4.86,4.937,7.191l1.615-89.7s33.411,1.487,56.582,1.983S822.969,260.785,790.074,240.464Z" transform="translate(-111.119 -36.447)" fill="#2d2c2b"/>
    <path id="Path_439" data-name="Path 439" d="M791.353,297.868c13.087-24,6.973-95.938,55.363-96.232,45.552-.278,56.309,22.985,59.052,77.061,2.4,47.312-54.682,67.844-54.682,67.844C819.432,338.911,801.84,322.339,791.353,297.868Z" transform="translate(-124.587 -31.744)" fill="#3b6b3b"/>
    <path id="Path_440" data-name="Path 440" d="M858.911,279.515c-2.039-40.221-10.195-75.583-30.453-72.505-28.711,16.188-25.971,71.263-37.1,91.676,7.054,16.461,16.95,31.018,32.553,40.015C840.09,328.227,860.346,307.825,858.911,279.515Z" transform="translate(-124.587 -32.561)" fill="#4e944f"/>
    <path id="Path_441" data-name="Path 441" d="M621.212,422.827h30.9s1.293-9.257-5.954-10.448S621.212,422.827,621.212,422.827Z" transform="translate(-97.801 -64.909)" fill="#f4e4d4"/>
    <path id="Path_442" data-name="Path 442" d="M733.988,422.827h-19.4s2.991-9.257,8.031-10.448S733.988,422.827,733.988,422.827Z" transform="translate(-112.501 -64.909)" fill="#f4e4d4"/>
    <path id="Path_443" data-name="Path 443" d="M695.737,210.172c32.6,3.985,49.476-17.242,47.864-58.091s-5.8-59.193-21.787-66.088-37.894,7.2-39.341,41.155S682.726,208.58,695.737,210.172Z" transform="translate(-107.378 -13.27)" fill="#3f773f"/>
    <path id="Path_444" data-name="Path 444" d="M633.406,117.079c5.18,14.953,27.977,11.534,55.151,2.12,6.035-22.186,41.011-13.853,43.724-26.9-25.024-14.137-53.79-17.411-79.188-7.836-11.659,4.4-17.712,18.073-19.98,31.618C633.2,116.421,633.293,116.754,633.406,117.079Z" transform="translate(-99.674 -12.438)" fill="#4e944f"/>
    <path id="Path_445" data-name="Path 445" d="M748.062,151.806c-1.613-40.848-8.51-58.916-24.5-65.812A21.006,21.006,0,0,0,712.288,84.5c8.4,11.177,14.119,33.261,14.119,58.689,0,36.709-11.916,66.467-26.616,66.467a12.2,12.2,0,0,1-6.633-2.082,6.861,6.861,0,0,0,4.328,2.593C730.087,214.159,749.674,192.655,748.062,151.806Z" transform="translate(-109.128 -13.27)" fill="#4e944f"/>
    <path id="Path_446" data-name="Path 446" d="M733.549,181.692c-4.475-17.561-20.513-27.208-35.823-21.548s-24.1,24.483-19.621,42.044,20.513,27.208,35.823,21.549S738.024,199.253,733.549,181.692Z" transform="translate(-106.574 -24.957)" fill="#3f773f"/>
    <path id="Path_447" data-name="Path 447" d="M736.243,181.692c-4.475-17.561-20.513-27.208-35.823-21.548a28.076,28.076,0,0,0-6.368,3.389c7.137,3.979,12.44,18.6,12.44,36.079,0,9.689-1.641,18.484-4.307,25.1a25.116,25.116,0,0,0,14.437-.978C731.932,218.077,740.718,199.253,736.243,181.692Z" transform="translate(-109.268 -24.957)" fill="#3f773f"/>
    <path id="Path_448" data-name="Path 448" d="M642.3,111.564c7.325,4.349,17.556,5.279,25.247-2.314,8.833-8.719,10.448-21.233,3.379-28.394-.285-.286-.59-.538-.9-.8-2.666.516-5.546.961-8.21,1.524C648.342,84.426,643.6,96.874,642.3,111.564Z" transform="translate(-101.122 -12.604)" fill="#3f773f"/>
    <path id="Path_449" data-name="Path 449" d="M660.208,81.788c7.98,2.247,8.877,24.7-6.572,28.653-10.245,2.62-33.23-27.287-33.23-27.287Z" transform="translate(-97.674 -12.876)" fill="#d27558"/>
    <path id="Path_450" data-name="Path 450" d="M638.578,73.962a1.783,1.783,0,0,1-.81-.072c-.6-.267-.617-1.089-.58-1.74a19.336,19.336,0,0,0-5.965-14.967,21.226,21.226,0,0,0-13.577-6.656c-3.445-.393-7.193,1.07-8.581,4.246-2.659-.6-5.348.8-7.538,2.419a9.77,9.77,0,0,0-2.909,3,4.106,4.106,0,0,0-.123,4.021,18.266,18.266,0,0,0-16.514,3.117c-1.938,1.543-5.515,6.666-4.06,10.693a25.628,25.628,0,0,0,3.5,7.11c.81,1,1.96,1.827,2.236,3.083.11.506.063,1.028.169,1.529.415,1.895,2.689,2.612,4.593,2.986a4.585,4.585,0,0,0,5.961,5.552,7.38,7.38,0,0,0,2.178,5.022c1.43,1.207,3.908,1.276,4.981-.259l35.725-18.236A2.388,2.388,0,0,1,638.512,82c.776-.346,1.84-.352,2.2-1.119.2-.414.084-3.358,2.926-3.688C643.158,74.551,640.995,73.862,638.578,73.962Z" transform="translate(-90.932 -7.945)" fill="#754651"/>
    <path id="Path_451" data-name="Path 451" d="M608.467,214.394c-19.171-6.847-22.3-50.783-4.427-96.383l22.815-4s22.378,62.11,17.647,79.365C640.268,208.8,616.378,217.218,608.467,214.394Z" transform="translate(-93.236 -17.949)" fill="#edb984"/>
    <path id="Path_452" data-name="Path 452" d="M628.509,114.006l-23.1,2.01c-6.391,24.76,5.437,83.793-2.689,93.034a17.335,17.335,0,0,0,7.4,5.344c7.911,2.824,31.8-5.59,36.035-21.024C650.887,176.116,628.509,114.006,628.509,114.006Z" transform="translate(-94.89 -17.948)" fill="#e79b69"/>
    <path id="Path_458" data-name="Path 458" d="M622.692,105.509c0-5.392-5.006-9.762-11.182-9.762s-11.18,4.37-11.18,9.762,5.006,9.762,11.18,9.762S622.692,110.9,622.692,105.509Z" transform="translate(-94.513 -15.074)" fill="#754651"/>
    <path id="Path_459" data-name="Path 459" d="M607.972,108.356c14.211,5.515,31.611,13.672,35.922,12.772,3.141-1.04,9.84-14.508,8.812-18.075-.927-3.792-9.217-11.024-17.3-15.155s-18.277-5.972-23.305-2.74S601.384,105.8,607.972,108.356Z" transform="translate(-95.247 -13.147)" fill="#edb984"/>
    <g id="Group_45" data-name="Group 45" transform="translate(517.173 78.753)">
      <path id="Path_460" data-name="Path 460" d="M619.976,98.611l3.444-4.772a.963.963,0,0,1,1.314-.2l1.649,1.107a.888.888,0,0,1,.291,1.222c-.008.013-.015.024-.024.036l-3.444,4.771a.962.962,0,0,1-1.314.2l-1.649-1.1a.888.888,0,0,1-.292-1.222Z" transform="translate(-614.755 -93.468)" fill="#754651"/>
      <path id="Path_461" data-name="Path 461" d="M613.83,113.824l1.587-5.411a.859.859,0,0,1,1.094-.528l.058.023,1.9.669a.979.979,0,0,1,.674,1.146l-1.587,5.411a.859.859,0,0,1-1.094.528l-.058-.023-1.9-.674A.979.979,0,0,1,613.83,113.824Z" transform="translate(-613.808 -95.73)" fill="#754651"/>
      <path id="Path_462" data-name="Path 462" d="M631.46,109.578c2.516,3.917,4.373,6.006,5.9,5.427a3.687,3.687,0,0,0,1.769-2.574l.077.03s-.378,3.583-1.911,4.315C635.778,117.5,633.994,114.671,631.46,109.578Z" transform="translate(-616.587 -96.004)" fill="#d27558"/>
      <path id="Path_463" data-name="Path 463" d="M630.539,104.817c-1.721-.623-2.813-1.966-2.438-3s2.073-1.366,3.791-.742,2.813,1.967,2.439,3S632.262,105.44,630.539,104.817Z" transform="translate(-616.047 -94.616)" fill="#5a4949"/>
      <path id="Path_464" data-name="Path 464" d="M626.109,117.054c-1.723-.624-2.813-1.967-2.443-3s2.073-1.363,3.791-.741,2.813,1.966,2.443,3S627.829,117.678,626.109,117.054Z" transform="translate(-615.349 -96.542)" fill="#5a4949"/>
      <path id="Path_465" data-name="Path 465" d="M633.916,101.31c-1.925-.468-3.767.31-4.116,1.738s.933,2.967,2.855,3.435,3.767-.31,4.116-1.738S635.841,101.778,633.916,101.31Z" transform="translate(-616.317 -94.681)" fill="#edb984"/>
      <path id="Path_466" data-name="Path 466" d="M629.115,113.6c-1.923-.468-3.767.312-4.114,1.74s.927,2.967,2.855,3.434,3.767-.31,4.116-1.738S631.044,114.072,629.115,113.6Z" transform="translate(-615.561 -96.616)" fill="#edb984"/>
      <path id="Path_467" data-name="Path 467" d="M645.685,118.42c-3.615-1.9-2.637-7.292.674-7.605S645.685,118.42,645.685,118.42Z" transform="translate(-618.465 -96.197)" fill="#5a4949"/>
    </g>
    <path id="Path_468" data-name="Path 468" d="M636.414,85.447a16.583,16.583,0,0,0-2.975-5.893A14.681,14.681,0,0,0,631.13,77.6a17.407,17.407,0,0,0-6.649-3.37,19.563,19.563,0,0,0-4.309-.2,44.451,44.451,0,0,0-7.637.658,15.336,15.336,0,0,0-7.028,3.224,21.144,21.144,0,0,0-4,5.161,13.535,13.535,0,0,0-1.494,3.033,6.93,6.93,0,0,0,1.432,6.572,1.546,1.546,0,0,1,.454.7,1.594,1.594,0,0,1-.443,1.138c-2.164,3-3.437,6.915-2.309,10.337a4.664,4.664,0,0,0,4.6,3.646,7.022,7.022,0,0,0,6.36-3.505c1.185-2.256.57-5.348-1.552-6.572A5.488,5.488,0,0,0,609.894,97a1.77,1.77,0,0,0,.039-1.83,3.089,3.089,0,0,1-.337-.464,1.427,1.427,0,0,1-.028-.8q.272-1.761.543-3.516c.024-.153.03-.312.04-.468a5.635,5.635,0,0,0,3.482.786,3.735,3.735,0,0,0,3.31-3.463.616.616,0,0,0-.042-.2c.642-.217,1.028-.971,1.487-1.531a4.177,4.177,0,0,1,4.887-.768c1.593.728,2.205,2.016,3.419,3.278,2.532,2.634,8.921,3.088,10.47,1.531Z" transform="translate(-94.262 -11.649)" fill="#754651"/>
    <path id="Path_469" data-name="Path 469" d="M647.048,84.381c-2.133-3.616-5.761-5.437-8.1-4.068s-2.512,5.411-.38,9.026,5.759,5.437,8.1,4.068S649.177,88,647.048,84.381Z" transform="translate(-100.297 -12.572)" fill="#edb984"/>
    <path id="Path_470" data-name="Path 470" d="M645.833,86.038c-1.321-2.245-3.6-3.392-5.078-2.562s-1.617,3.326-.3,5.571,3.6,3.392,5.08,2.562S647.157,88.283,645.833,86.038Z" transform="translate(-100.688 -13.099)" fill="#d27558"/>
    <path id="Path_471" data-name="Path 471" d="M646.184,89.434c-.917-1.555-2.492-2.351-3.518-1.779s-1.117,2.3-.2,3.85,2.492,2.349,3.518,1.777S647.1,90.988,646.184,89.434Z" transform="translate(-101.047 -13.771)" fill="#edb984"/>
    <path id="Path_472" data-name="Path 472" d="M696.471,210.545c-20.638-7.306-33.189-54.2-25.1-102.859l21.955-4.276s36.541,63.078,35.51,81.489C727.913,201.372,704.989,213.561,696.471,210.545Z" transform="translate(-105.307 -16.28)" fill="#edb984"/>
    <path id="Path_473" data-name="Path 473" d="M695.993,103.409a125.392,125.392,0,0,1,10.546,32.336c6.218,32.742.079,61.408-13.709,64.028a12.261,12.261,0,0,1-6.993-.852c3.851,5.805,8.341,9.866,13.3,11.622,8.518,3.016,31.442-9.173,32.364-25.644C732.534,166.488,695.993,103.409,695.993,103.409Z" transform="translate(-107.975 -16.28)" fill="#e79b69"/>
    <rect id="Rectangle_43" data-name="Rectangle 43" width="14.822" height="8.956" transform="translate(307.47 231.214)" fill="#db975a"/>
    <rect id="Rectangle_44" data-name="Rectangle 44" width="7.988" height="8.956" transform="translate(416.539 231.214)" fill="#db975a"/>
    <path id="Path_474" data-name="Path 474" d="M100.676,105.446c33.259,13.294,63.931,15.69,71.015,5.965-9.553-9.053-21.5-16.8-27.046-19.431-6.4-3.039-27.411-8.8-46.418-4.543-5.893,1.026-12.785,3.628-19.885,7.434A194.461,194.461,0,0,0,100.676,105.446Z" transform="translate(-12.334 -13.527)" fill="#3f773f"/>
    <path id="Path_475" data-name="Path 475" d="M157.8,104.757,156.518,103l-1.962,1.366s-15.037,63.544-2.585,109.56l11.1,9.154,2.975-9.437C144.165,178.751,157.8,104.757,157.8,104.757Z" transform="translate(-23.149 -16.216)" fill="#3f773f"/>
    <path id="Path_476" data-name="Path 476" d="M159.5,105.978l-1.381-1.71-1.883,1.332s-11.353,61.993,3.792,106.873l11.643,8.924,2.428-9.206C150.167,178.163,159.5,105.978,159.5,105.978Z" transform="translate(-23.954 -16.415)" fill="#67a567"/>
    <path id="Path_477" data-name="Path 477" d="M172.145.573c-16.961-2.42-29.684,3.095-31.118,11.418L179.44,33.307c10.651.783,8.549-8.532,8.549-8.532s5.6-3.738,4.755-9.565C191.336,5.528,184.737,2.368,172.145.573Z" transform="translate(-22.203 0)" fill="#7c3d42"/>
    <path id="Path_478" data-name="Path 478" d="M130.354,79.756c7.667-13.019,18.636-36.334,18.636-36.334l24.356,16.846L164.8,92.277S159,97.248,147.723,93.6C135.052,89.5,130.354,79.756,130.354,79.756Z" transform="translate(-20.522 -6.836)" fill="#d27558"/>
    <path id="Path_479" data-name="Path 479" d="M151.482,18.692c-8.518,10.945-8.581,48.836-3.466,52.167s11.206,6.488,17.177,5.972,9.914-2.036,10.532-3.321,6.039-37.988,8.6-44.044C188.4,19.849,159.753,8.06,151.482,18.692Z" transform="translate(-22.757 -2.282)" fill="#edb984"/>
    <path id="Path_480" data-name="Path 480" d="M139.288,59.175l3.811-4.6.373-6.572,6.168-.789s-2.684-24.1,1.3-26.888,15.18-7.4,6.2-11.159-21.029,4.7-21.738,9.877S139.288,59.175,139.288,59.175Z" transform="translate(-21.306 -1.296)" fill="#7c3d42"/>
    <path id="Path_481" data-name="Path 481" d="M144.882,57.382c-7.728-2.881-10.352-10.14-8.446-13.75s6.625-.125,8.352,2.106S144.882,57.382,144.882,57.382Z" transform="translate(-21.386 -6.623)" fill="#edb984"/>
    <path id="Path_482" data-name="Path 482" d="M165.562,93.082l-.169-.044s-7.3,3.278-11.277,2.034c-6.3-1.967-20.8-16.243-20.8-16.243L125.942,85,142.3,106.145l11.319-5.1,7.337,7.961,6.488-8.483Z" transform="translate(-19.828 -12.41)" fill="#eadfce"/>
    <path id="Path_483" data-name="Path 483" d="M143.811,55.073c-4.8-1.788-6.426-6.3-5.243-8.534s4.113-.079,5.185,1.3S143.811,55.073,143.811,55.073Z" transform="translate(-21.757 -7.174)" fill="#d27558"/>
    <path id="Path_484" data-name="Path 484" d="M144.9,56.366c-3.324-.815-4.755-3.679-4.144-5.258s2.724-.372,3.544.463S144.9,56.366,144.9,56.366Z" transform="translate(-22.139 -7.925)" fill="#edb984"/>
    <path id="Path_485" data-name="Path 485" d="M60.506,210.721c-4.841-22.551,16.767-32.523,25.641-26.146s7.262,33.526,3.783,36.184S61.515,215.422,60.506,210.721Z" transform="translate(-9.416 -28.76)" fill="#edb984"/>
    <path id="Path_486" data-name="Path 486" d="M69.555,208.427c-1.335,9.584-7.139,21.158-9.437,22.09s-5.991-3.155-5.1-6.4,3.025-13.763,4.7-16.732S70.053,204.857,69.555,208.427Z" transform="translate(-8.64 -32.34)" fill="#edb984"/>
    <path id="Path_487" data-name="Path 487" d="M82.016,216.355c-.632,11.022-5.585,24.863-7.811,26.209s-6.224-2.817-5.573-6.612,2.013-15.97,3.468-19.542S82.249,212.248,82.016,216.355Z" transform="translate(-10.794 -33.612)" fill="#edb984"/>
    <path id="Path_488" data-name="Path 488" d="M97.134,216.283c.532,11.027-2.939,25.311-5.012,26.885s-6.488-2.145-6.235-5.99.322-16.093,1.392-19.8S96.936,212.176,97.134,216.283Z" transform="translate(-13.52 -33.663)" fill="#edb984"/>
    <path id="Path_489" data-name="Path 489" d="M277.572,241.635c-7.654,2.118-14.555,1.242-15.619-.356s1.57-6.058,4.232-6.414,11.156-2.122,13.711-1.73S280.423,240.845,277.572,241.635Z" transform="translate(-41.203 -36.695)" fill="#edb984"/>
    <path id="Path_490" data-name="Path 490" d="M282.238,228.5c-8.481,1.5-16.128.063-17.307-1.62s1.573-6.806,4.522-6.945,13.021-1.253,15.852-.653S285.4,227.944,282.238,228.5Z" transform="translate(-41.666 -34.495)" fill="#edb984"/>
    <path id="Path_491" data-name="Path 491" d="M288.354,216.115c-7.714-.621-14.549-3.8-15.539-5.668s1.716-6.019,4.381-5.444,11.8,1.938,14.324,3.182S291.227,216.346,288.354,216.115Z" transform="translate(-42.918 -32.266)" fill="#edb984"/>
    <path id="Path_492" data-name="Path 492" d="M157.52,110.507l-3.931-4.343,4.455-5.943,2.152.105,1.627,7.506Z" transform="translate(-24.18 -15.778)" fill="#4e944f"/>
    <path id="Path_493" data-name="Path 493" d="M158.7,119.6c.522-8.341,1.2-13.619,1.2-13.619l-1.381-1.71-1.883,1.332s-.95,5.207-1.938,13.663Q156.732,119.469,158.7,119.6Z" transform="translate(-24.355 -16.415)" fill="#4e944f"/>
    <path id="Path_494" data-name="Path 494" d="M407.154,176.906a2.859,2.859,0,1,0-5.716.147v.021l.511,17.462a34.37,34.37,0,0,0,5.974,8.669Z" transform="translate(-63.2 -27.413)" fill="#3f773f"/>
    <g id="Group_46" data-name="Group 46" transform="translate(563.865 49.949)">
      <path id="Path_495" data-name="Path 495" d="M696.733,83.983c1.379,3.92-.186,22.046-2,31.987l-23.566-1.18c-4.68-17.068.3-26.107,2.544-29.09C676.447,82.075,695.356,80.061,696.733,83.983Z" transform="translate(-669.225 -62.834)" fill="#edb984"/>
      <path id="Path_496" data-name="Path 496" d="M717.877,97.764c-.519,1.466-10.428,6.137-17.745,19.547L695.4,103.14c2.011-3.662,16.044-12.227,18.824-11.893C717.314,91.619,718.639,95.623,717.877,97.764Z" transform="translate(-673.345 -64.313)" fill="#edb984"/>
      <path id="Path_497" data-name="Path 497" d="M709.1,72.012c-.237,1.416-4.357,12.421-9.88,23.208l-5.657-8.562s8.4-17.45,10.765-18.4S709.447,69.943,709.1,72.012Z" transform="translate(-673.057 -60.663)" fill="#edb984"/>
      <path id="Path_498" data-name="Path 498" d="M695.863,64.718c.658,1.481-3.1,14.418-6.81,26.372L682.462,83.1s5.493-19.259,7.6-20.6S695.2,63.235,695.863,64.718Z" transform="translate(-671.309 -59.721)" fill="#edb984"/>
      <path id="Path_499" data-name="Path 499" d="M669.854,97.4c-2.645-17.008,6.9-37.011,8.51-37.676s6.155-.918,5.74,1.7-4.887,14.661-4.346,17.761,5.752,21.6,5.379,21.849S669.854,97.4,669.854,97.4Z" transform="translate(-669.252 -59.282)" fill="#edb984"/>
    </g>
    <g id="Group_47" data-name="Group 47" transform="translate(132.995 26.252)">
      <path id="Path_500" data-name="Path 500" d="M168.075,47.96c.147-2.39-.843-4.471-2.223-4.647s-2.612,1.615-2.761,4,.843,4.466,2.223,4.647S167.928,50.347,168.075,47.96Z" transform="translate(-158.669 -33.069)" fill="#5a4949"/>
      <path id="Path_501" data-name="Path 501" d="M168.109,31.159l-8.983.674a1.406,1.406,0,0,0-1.277,1.5l.188,2.923a1.372,1.372,0,0,0,1.439,1.3h.019l8.983-.674a1.408,1.408,0,0,0,1.277-1.5l-.188-2.923a1.372,1.372,0,0,0-1.441-1.3Z" transform="translate(-157.845 -31.157)" fill="#7c3d42"/>
      <path id="Path_502" data-name="Path 502" d="M182.31,48.526c-.026-2.4-1.169-4.4-2.553-4.466s-2.483,1.812-2.456,4.213,1.169,4.4,2.551,4.466S182.336,50.923,182.31,48.526Z" transform="translate(-160.908 -33.188)" fill="#5a4949"/>
      <path id="Path_503" data-name="Path 503" d="M187.337,35.352l-7.13-2.653a1.138,1.138,0,0,0-1.442.712c-.008.024-.015.048-.022.072l-.784,2.48a1.282,1.282,0,0,0,.711,1.594l7.13,2.652a1.135,1.135,0,0,0,1.439-.709q.013-.038.023-.076l.784-2.477A1.281,1.281,0,0,0,187.337,35.352Z" transform="translate(-161.001 -31.39)" fill="#7c3d42"/>
      <path id="Path_504" data-name="Path 504" d="M172.919,50.569c1.439,5.893,1.638,9.477-.667,10.23-1.437.472-3.29-.2-4.723-.936l-.053.1s4.273,3.095,6.748,2.477C176.676,61.821,175.6,57.594,172.919,50.569Z" transform="translate(-159.362 -34.213)" fill="#d27558"/>
      <path id="Path_505" data-name="Path 505" d="M162.876,73.856a1.623,1.623,0,0,1-.1-2.163c.506-.82,1.369-1.18,1.93-.8a1.624,1.624,0,0,1,.1,2.163C164.3,73.872,163.436,74.231,162.876,73.856Z" transform="translate(-158.564 -37.389)" fill="#5a4949"/>
      <rect id="Rectangle_45" data-name="Rectangle 45" width="8.586" height="4.792" transform="translate(3.331 9.051)" fill="#edb984"/>
      <rect id="Rectangle_46" data-name="Rectangle 46" width="4.793" height="8.586" transform="matrix(0.221, -0.975, 0.975, 0.221, 15.155, 13.633)" fill="#edb984"/>
    </g>
  </g>
</svg>
