<svg xmlns="http://www.w3.org/2000/svg" width="61.957" height="61.812" viewBox="0 0 61.957 61.812">
  <g id="Group_146" data-name="Group 146" transform="translate(199.46 -38.594)">
    <path id="Path_545" data-name="Path 545" d="M-149.639,51.265c1.349-1.351,2.65-2.644,3.94-3.948a3.3,3.3,0,0,1,3.159-1.076,5.119,5.119,0,0,1,1.93.952,19.876,19.876,0,0,1,1.965,1.929,3.528,3.528,0,0,1-.036,5.231q-6.1,6.117-12.212,12.222T-163.12,78.781a3.311,3.311,0,0,1-1.387.8c-2.18.6-4.378,1.147-6.573,1.7-1.235.309-1.94-.435-1.607-1.677.591-2.205,1.167-4.415,1.8-6.61a2.863,2.863,0,0,1,.711-1.171q8.752-8.793,17.542-17.548a1.49,1.49,0,0,0,.488-1.172c-.022-3.084-.009-6.168-.012-9.251a2.576,2.576,0,0,0-2.885-2.863q-19.544,0-39.088,0a2.584,2.584,0,0,0-2.918,2.89q0,21.26,0,42.519a2.549,2.549,0,0,0,2.872,2.857q9.159,0,18.319-.01a2.9,2.9,0,0,1,1.813.571c3.076,2.225,6.174,4.42,9.264,6.624.162.115.331.22.555.368V91.711c-.189-.011-.384-.024-.579-.033a1.252,1.252,0,0,1-1.319-1.236,1.234,1.234,0,0,1,1.307-1.185c1.531-.017,3.063-.006,4.6-.006,1.8,0,3.594.007,5.391,0a2.5,2.5,0,0,0,2.671-2.687q.011-6.433,0-12.866c0-.184-.006-.368,0-.551a1.246,1.246,0,0,1,1.253-1.3,1.227,1.227,0,0,1,1.167,1.319c.006,4.574.035,9.15-.015,13.723a4.9,4.9,0,0,1-4.922,4.785c-2.205.026-4.411.006-6.616.008-.138,0-.277.016-.474.029V92.4c0,2.165,0,4.329,0,6.494a1.348,1.348,0,0,1-.694,1.387,1.346,1.346,0,0,1-1.474-.263q-5.6-4.018-11.211-8.008a1.853,1.853,0,0,0-1-.318c-5.983-.019-11.965-.013-17.948-.014a5,5,0,0,1-5.367-5.349q0-21.229,0-42.457A4.972,4.972,0,0,1-195.5,38.7a6.2,6.2,0,0,1,1.278-.1q19.636-.007,39.272,0a4.921,4.921,0,0,1,5.228,5.211c.006,2.41,0,4.82.006,7.23A1.314,1.314,0,0,0-149.639,51.265ZM-167.849,73l3.479,3.442,21.9-21.9-3.452-3.449Zm27.315-20.253c.806-.708.832-1.266.048-2.06q-.774-.783-1.557-1.557c-.788-.779-1.359-.754-2.067.053Zm-28.476,22.689-.847,3.028,3.035-.836Z" fill="#4e944f"/>
    <path id="Path_546" data-name="Path 546" d="M-142.184,91c-2.1,0-4.206.01-6.308,0-1.04-.007-1.668-.859-1.274-1.7a1.328,1.328,0,0,1,1.365-.729c2.817.009,5.634,0,8.452,0,1.347,0,2.695,0,4.042,0,.953,0,1.53.453,1.542,1.2.012.762-.582,1.232-1.572,1.233Q-139.06,91.007-142.184,91Z" transform="translate(-29.85 -30.091)" fill="#4e944f"/>
    <path id="Path_547" data-name="Path 547" d="M-166.833,141.819c-1.878,0-3.755.01-5.633,0-.947-.007-1.529-.667-1.339-1.474a1.169,1.169,0,0,1,1.2-.94q5.756-.015,11.511,0a1.2,1.2,0,0,1,1.256,1.223,1.217,1.217,0,0,1-1.3,1.188C-163.037,141.83-164.935,141.819-166.833,141.819Z" transform="translate(-15.426 -60.693)" fill="#4e944f"/>
    <path id="Path_548" data-name="Path 548" d="M-167.61,65.576h-4.839a1.037,1.037,0,0,1-1.134-.747,1.808,1.808,0,0,1,.223-1.231,1.283,1.283,0,0,1,.955-.4c3.206-.029,6.412-.026,9.617-.012A1.177,1.177,0,0,1-161.48,64.4c-.012.717-.515,1.168-1.352,1.173-1.593.01-3.185,0-4.778,0Z" transform="translate(-15.563 -14.799)" fill="#4e944f"/>
    <path id="Path_549" data-name="Path 549" d="M-130.84,65.576c-1.2,0-2.406.008-3.608,0-.834-.008-1.336-.457-1.349-1.173a1.176,1.176,0,0,1,1.3-1.22q3.639-.024,7.277,0a1.214,1.214,0,0,1,1.335,1.2,1.221,1.221,0,0,1-1.35,1.188C-128.434,65.585-129.637,65.576-130.84,65.576Z" transform="translate(-38.333 -14.797)" fill="#4e944f"/>
    <path id="Path_550" data-name="Path 550" d="M-170.325,88.564c.734,0,1.469-.008,2.2,0a1.231,1.231,0,0,1,1.321,1.158,1.224,1.224,0,0,1-1.3,1.251q-2.232.033-4.465,0a1.214,1.214,0,0,1-1.289-1.257,1.232,1.232,0,0,1,1.326-1.152C-171.793,88.556-171.059,88.564-170.325,88.564Z" transform="translate(-15.418 -30.086)" fill="#4e944f"/>
    <path id="Path_551" data-name="Path 551" d="M-147.322,116.41c-.651,0-1.3.012-1.954,0a1.192,1.192,0,0,1-1.264-1.2,1.187,1.187,0,0,1,1.281-1.181q2.014-.023,4.03,0a1.191,1.191,0,0,1,1.3,1.168,1.205,1.205,0,0,1-1.313,1.214C-145.939,116.421-146.63,116.411-147.322,116.41Z" transform="translate(-29.456 -45.412)" fill="#4e944f"/>
    <path id="Path_552" data-name="Path 552" d="M-168.387,116.4c-.429,0-.858.017-1.286,0a1.183,1.183,0,0,1-1.182-1.163,1.161,1.161,0,0,1,1.133-1.2c.918-.031,1.837-.031,2.755,0a1.153,1.153,0,0,1,1.12,1.153,1.191,1.191,0,0,1-1.132,1.212c-.041,0-.082.006-.123.006h-1.286Z" transform="translate(-17.224 -45.41)" fill="#4e944f"/>
    <path id="Path_553" data-name="Path 553" d="M-103.079,65.571c-.428,0-.858.024-1.284-.005a1.185,1.185,0,0,1-1.114-1.166,1.149,1.149,0,0,1,1.081-1.188,25.092,25.092,0,0,1,2.566,0,1.148,1.148,0,0,1,1.082,1.186,1.172,1.172,0,0,1-1.108,1.168C-102.262,65.6-102.671,65.571-103.079,65.571Z" transform="translate(-56.589 -14.803)" fill="#4e944f"/>
  </g>
</svg>
