<svg xmlns="http://www.w3.org/2000/svg" width="694.842" height="430.508" viewBox="0 0 694.842 430.508">
  <g id="Group_286" data-name="Group 286" transform="translate(-84.97 -71.24)">
    <path id="Path_697" data-name="Path 697" d="M142.249,494.709c-79.78-71.982,33.593-92.1-5.138-152.918C111.179,301.07,104.983,217.851,147.66,198.4c52.634-23.988,85.308-7.348,129.569-60.974,31.937-38.694,130.566-71.763,193.443-65.4,87.466,8.856,100.474,76,166.8,78.477,40.669,1.518,74.725,11.668,107.727,52.612,47.4,58.806,25.3,149.724,2.879,224.827-8.255,27.646-25.012,67.418-25.012,67.418Z" transform="translate(6.521 0)" fill="#f9f9f9"/>
    <rect id="Rectangle_81" data-name="Rectangle 81" width="289.253" height="170.628" rx="67.168" transform="translate(287.384 89.894)" fill="#d8d8d8" opacity="0.42"/>
    <path id="Rectangle_82" data-name="Rectangle 82" d="M61.418,0H206.476a61.417,61.417,0,0,1,61.417,61.417v31.2a61.417,61.417,0,0,1-61.417,61.417H61.418A61.418,61.418,0,0,1,0,92.621v-31.2A61.418,61.418,0,0,1,61.418,0Z" transform="translate(298.064 98.189)" fill="#fff"/>
    <path id="Path_698" data-name="Path 698" d="M739.35,422.142h-604a4.037,4.037,0,0,1-4.141-3.924h0a4.037,4.037,0,0,1,4.141-3.924h604a4.037,4.037,0,0,1,4.141,3.924h0A4.037,4.037,0,0,1,739.35,422.142Z" transform="translate(10.731 79.605)" fill="#8d786a"/>
    <path id="Path_699" data-name="Path 699" d="M614.346,482.2h-3.607V132.162h3.607a10.121,10.121,0,0,1,10.121,10.121v329.8A10.121,10.121,0,0,1,614.346,482.2Z" transform="translate(122.004 14.137)" fill="#3d3d3d"/>
    <path id="Path_700" data-name="Path 700" d="M646.646,482.111,455.889,462.294V151.3l190.782-19.136a6.746,6.746,0,0,1,7.419,6.712V475.4A6.748,6.748,0,0,1,646.646,482.111Z" transform="translate(86.072 14.13)" fill="#2e2e2e"/>
    <path id="Path_701" data-name="Path 701" d="M625.585,141.356V466.543L457.885,449.7l-1.952-.195-.043-.005v-290.4l.043-.005,1.952-.2Z" transform="translate(86.072 16.27)" fill="#fff"/>
    <rect id="Rectangle_83" data-name="Rectangle 83" width="19.17" height="325.19" transform="translate(711.656 157.625)" fill="#424242"/>
    <rect id="Rectangle_84" data-name="Rectangle 84" width="2.121" height="180.731" transform="translate(716.391 201.64)" fill="#8d786a"/>
    <rect id="Rectangle_85" data-name="Rectangle 85" width="2.121" height="180.731" transform="translate(723.667 302.195)" fill="#8d786a"/>
    <g id="Group_255" data-name="Group 255" transform="translate(337.536 146.265)">
      <path id="Path_702" data-name="Path 702" d="M300.088,482.2H303.7V132.162h-3.607a10.121,10.121,0,0,0-10.121,10.121v329.8A10.121,10.121,0,0,0,300.088,482.2Z" transform="translate(-289.967 -132.128)" fill="#3d3d3d"/>
      <path id="Path_703" data-name="Path 703" d="M302.531,482.111l190.758-19.818V151.3L302.507,132.168a6.746,6.746,0,0,0-7.419,6.712V475.4A6.747,6.747,0,0,0,302.531,482.111Z" transform="translate(-288.779 -132.134)" fill="#2e2e2e"/>
      <path id="Path_704" data-name="Path 704" d="M487.919,159.106V449.5l-.041.005-3.154.314-166.5,16.719V141.356l166.636,17.431,3.016.315Z" transform="translate(-283.41 -129.994)" fill="#fff"/>
      <rect id="Rectangle_86" data-name="Rectangle 86" width="19.17" height="325.19" transform="translate(34.815 336.55) rotate(180)" fill="#424242"/>
      <rect id="Rectangle_87" data-name="Rectangle 87" width="2.121" height="180.731" transform="translate(19.257 153.789)" fill="#8d786a"/>
      <rect id="Rectangle_88" data-name="Rectangle 88" width="2.205" height="93.335" transform="translate(22.401 13.787)" fill="#8d786a"/>
      <rect id="Rectangle_89" data-name="Rectangle 89" width="2.205" height="114.062" transform="translate(28.756 13.787)" fill="#8d786a"/>
    </g>
    <path id="Path_705" data-name="Path 705" d="M458.471,155.613V446.421l-1.953-.194-3.154.314V155.5h.138l3.016.315Z" transform="translate(85.486 19.553)" fill="#f4f4f4"/>
    <g id="Group_256" data-name="Group 256" transform="translate(384.04 171.686)">
      <path id="Path_706" data-name="Path 706" d="M471.159,171.778l-128.768-10.99v-8.02l128.768,11.6Z" transform="translate(-324.305 -152.768)" fill="#f4f4f4"/>
      <path id="Path_707" data-name="Path 707" d="M474.566,194.008l-146.854-9.954v-8.105L474.566,186.6Z" transform="translate(-327.712 -147.389)" fill="#f4f4f4"/>
      <path id="Path_708" data-name="Path 708" d="M474.566,204.97l-146.854-8.665V188.2l146.854,9.357Z" transform="translate(-327.712 -144.546)" fill="#f4f4f4"/>
      <path id="Path_709" data-name="Path 709" d="M426.473,179.364,327.712,171.8V163.7l98.762,8.027Z" transform="translate(-327.712 -150.232)" fill="#f4f4f4"/>
      <path id="Path_710" data-name="Path 710" d="M455.067,181.461l-43.026-3.295v-7.616l43.026,3.5Z" transform="translate(-308.143 -148.641)" fill="#f4f4f4"/>
      <path id="Path_711" data-name="Path 711" d="M474.566,226.894l-146.854-6.086V212.7l146.854,6.778Z" transform="translate(-327.712 -138.86)" fill="#f4f4f4"/>
      <path id="Path_712" data-name="Path 712" d="M474.566,237.856l-146.854-4.8v-8.105l146.854,5.489Z" transform="translate(-327.712 -136.017)" fill="#f4f4f4"/>
      <path id="Path_713" data-name="Path 713" d="M474.566,259.78l-146.854-2.218v-8.105l146.854,2.91Z" transform="translate(-327.712 -130.331)" fill="#f4f4f4"/>
      <path id="Path_714" data-name="Path 714" d="M471.159,248.721l-128.768-3.075v-8.02l128.768,3.683Z" transform="translate(-324.305 -133.077)" fill="#f4f4f4"/>
      <path id="Path_715" data-name="Path 715" d="M474.566,315.257l-146.854,4.229v-8.105l146.854-3.538Z" transform="translate(-327.712 -116.783)" fill="#f4f4f4"/>
      <path id="Path_716" data-name="Path 716" d="M474.566,360.076l-146.854,9.387v-8.106l146.854-8.695Z" transform="translate(-327.712 -106.382)" fill="#f4f4f4"/>
      <path id="Path_717" data-name="Path 717" d="M474.566,382.486,327.712,394.451v-8.105l146.854-11.274Z" transform="translate(-327.712 -101.182)" fill="#f4f4f4"/>
      <path id="Path_718" data-name="Path 718" d="M474.566,348.871l-146.854,8.1v-8.106l146.854-7.405Z" transform="translate(-327.712 -108.982)" fill="#f4f4f4"/>
      <path id="Path_719" data-name="Path 719" d="M471.159,304.052l-128.768,2.577v-8.02l128.768-1.971Z" transform="translate(-324.305 -119.383)" fill="#f4f4f4"/>
      <path id="Path_720" data-name="Path 720" d="M471.159,326.461,342.392,331.3v-8.02l128.768-4.232Z" transform="translate(-324.305 -114.182)" fill="#f4f4f4"/>
      <path id="Path_721" data-name="Path 721" d="M366.8,210.477l98.762,4.96v-7.413L366.8,202.6Z" transform="translate(-318.641 -141.204)" fill="#f4f4f4"/>
      <path id="Path_722" data-name="Path 722" d="M327.712,208.557l43.026,2.161v-7.9l-43.026-2.364Z" transform="translate(-327.712 -141.703)" fill="#f4f4f4"/>
      <path id="Path_723" data-name="Path 723" d="M474.566,281.7l-146.854.362V273.96l146.854.331Z" transform="translate(-327.712 -124.645)" fill="#f4f4f4"/>
      <path id="Path_724" data-name="Path 724" d="M366.8,270.018l98.762.624V263.23L366.8,262.14Z" transform="translate(-318.641 -127.388)" fill="#f4f4f4"/>
      <path id="Path_725" data-name="Path 725" d="M327.712,269.814l43.026.272v-7.9l-43.026-.475Z" transform="translate(-327.712 -127.488)" fill="#f4f4f4"/>
      <path id="Path_726" data-name="Path 726" d="M366.8,342.242l98.762-4.579v-7.413L366.8,334.364Z" transform="translate(-318.641 -111.583)" fill="#f4f4f4"/>
      <path id="Path_727" data-name="Path 727" d="M327.712,343.66l43.026-1.995v-7.9l-43.026,1.792Z" transform="translate(-327.712 -110.768)" fill="#f4f4f4"/>
      <path id="Path_728" data-name="Path 728" d="M383.419,293.726l78.29-.88v-7.413l-78.29.511Z" transform="translate(-314.785 -121.983)" fill="#f4f4f4"/>
      <path id="Path_729" data-name="Path 729" d="M327.712,294.395l63.5-.713v-7.807l-63.5.414Z" transform="translate(-327.712 -121.88)" fill="#f4f4f4"/>
      <path id="Path_730" data-name="Path 730" d="M385.5,376.815l78.29-5.692v-7.4l-78.29,5.322Z" transform="translate(-314.302 -103.816)" fill="#f4f4f4"/>
      <path id="Path_731" data-name="Path 731" d="M327.712,380.89l63.5-4.617v-7.806l-63.5,4.318Z" transform="translate(-327.712 -102.715)" fill="#f4f4f4"/>
    </g>
    <g id="Group_257" data-name="Group 257" transform="translate(550.974 171.686)">
      <path id="Path_732" data-name="Path 732" d="M465.344,171.778l128.768-10.99v-8.02l-128.768,11.6Z" transform="translate(-462.709 -152.768)" fill="#f4f4f4"/>
      <path id="Path_733" data-name="Path 733" d="M465.344,194.008,612.2,184.054v-8.105L465.344,186.6Z" transform="translate(-462.709 -147.389)" fill="#f4f4f4"/>
      <path id="Path_734" data-name="Path 734" d="M465.344,204.97,612.2,196.306V188.2l-146.854,9.357Z" transform="translate(-462.709 -144.546)" fill="#f4f4f4"/>
      <path id="Path_735" data-name="Path 735" d="M504.378,179.364,603.14,171.8V163.7l-98.762,8.027Z" transform="translate(-453.651 -150.232)" fill="#f4f4f4"/>
      <path id="Path_736" data-name="Path 736" d="M465.287,181.461l43.026-3.295v-7.616l-43.026,3.5Z" transform="translate(-462.722 -148.641)" fill="#f4f4f4"/>
      <path id="Path_737" data-name="Path 737" d="M465.344,226.894,612.2,220.808V212.7l-146.854,6.778Z" transform="translate(-462.709 -138.86)" fill="#f4f4f4"/>
      <path id="Path_738" data-name="Path 738" d="M465.344,237.856l146.854-4.8v-8.105l-146.854,5.489Z" transform="translate(-462.709 -136.017)" fill="#f4f4f4"/>
      <path id="Path_739" data-name="Path 739" d="M465.344,259.78,612.2,257.562v-8.105l-146.854,2.91Z" transform="translate(-462.709 -130.331)" fill="#f4f4f4"/>
      <path id="Path_740" data-name="Path 740" d="M465.344,248.721l128.768-3.075v-8.02l-128.768,3.683Z" transform="translate(-462.709 -133.077)" fill="#f4f4f4"/>
      <path id="Path_741" data-name="Path 741" d="M465.344,315.257,612.2,319.486v-8.105l-146.854-3.538Z" transform="translate(-462.709 -116.783)" fill="#f4f4f4"/>
      <path id="Path_742" data-name="Path 742" d="M465.344,360.076,612.2,369.463v-8.106l-146.854-8.695Z" transform="translate(-462.709 -106.382)" fill="#f4f4f4"/>
      <path id="Path_743" data-name="Path 743" d="M465.344,382.486,612.2,394.451v-8.105L465.344,375.072Z" transform="translate(-462.709 -101.182)" fill="#f4f4f4"/>
      <path id="Path_744" data-name="Path 744" d="M465.344,348.871l146.854,8.1v-8.106l-146.854-7.405Z" transform="translate(-462.709 -108.982)" fill="#f4f4f4"/>
      <path id="Path_745" data-name="Path 745" d="M465.344,304.052l128.768,2.577v-8.02l-128.768-1.971Z" transform="translate(-462.709 -119.383)" fill="#f4f4f4"/>
      <path id="Path_746" data-name="Path 746" d="M465.344,326.461,594.111,331.3v-8.02l-128.768-4.232Z" transform="translate(-462.709 -114.182)" fill="#f4f4f4"/>
      <path id="Path_747" data-name="Path 747" d="M564.048,210.477l-98.762,4.96v-7.413l98.762-5.425Z" transform="translate(-462.722 -141.204)" fill="#f4f4f4"/>
      <path id="Path_748" data-name="Path 748" d="M592.642,208.557l-43.026,2.161v-7.9l43.026-2.364Z" transform="translate(-443.153 -141.703)" fill="#f4f4f4"/>
      <path id="Path_749" data-name="Path 749" d="M465.344,281.7l146.854.362V273.96l-146.854.331Z" transform="translate(-462.709 -124.645)" fill="#f4f4f4"/>
      <path id="Path_750" data-name="Path 750" d="M564.048,270.018l-98.762.624V263.23l98.762-1.09Z" transform="translate(-462.722 -127.388)" fill="#f4f4f4"/>
      <path id="Path_751" data-name="Path 751" d="M592.642,269.814l-43.026.272v-7.9l43.026-.475Z" transform="translate(-443.153 -127.488)" fill="#f4f4f4"/>
      <path id="Path_752" data-name="Path 752" d="M564.048,342.242l-98.762-4.579v-7.413l98.762,4.113Z" transform="translate(-462.722 -111.583)" fill="#f4f4f4"/>
      <path id="Path_753" data-name="Path 753" d="M592.642,343.66l-43.026-1.995v-7.9l43.026,1.792Z" transform="translate(-443.153 -110.768)" fill="#f4f4f4"/>
      <path id="Path_754" data-name="Path 754" d="M543.577,293.726l-78.29-.88v-7.413l78.29.511Z" transform="translate(-462.722 -121.983)" fill="#f4f4f4"/>
      <path id="Path_755" data-name="Path 755" d="M596.5,294.395l-63.5-.713v-7.807l63.5.414Z" transform="translate(-447.009 -121.88)" fill="#f4f4f4"/>
      <path id="Path_756" data-name="Path 756" d="M541.5,376.815l-78.29-5.692v-7.4l78.29,5.322Z" transform="translate(-463.205 -103.816)" fill="#f4f4f4"/>
      <path id="Path_757" data-name="Path 757" d="M596.5,380.89,533,376.274v-7.806l63.5,4.318Z" transform="translate(-447.009 -102.715)" fill="#f4f4f4"/>
    </g>
    <path id="Path_758" data-name="Path 758" d="M166.4,324.479c-6.53-14.075,9.89-31.816,2.058-45.21-4.864-8.32-17.649-11.351-19.073-20.882-.424-2.84.336-5.7.737-8.546a34.277,34.277,0,0,0-42.346-38.02l0,0-.039.016a.259.259,0,0,0-.042.01v0c-10.463,3.931-19.245,13.453-21.831,24.324a34.9,34.9,0,0,0,8.2,31.224c1.952,2.107,4.207,4.025,5.479,6.6,4.265,8.64-4.506,18.423-3.757,28.03,1.206,15.468,24.812,20.678,27.476,35.964.7,4.031-.24,8.15-.322,12.242-.356,17.863,19.05,33.2,36.348,28.72l.886-.278c16.762-6.187,23.957-29.85,13.476-44.322C171.243,331.037,168.121,328.192,166.4,324.479Z" transform="translate(0 32.39)" fill="#ededed"/>
    <g id="Group_258" data-name="Group 258" transform="translate(93.762 244.558)">
      <path id="Path_759" data-name="Path 759" d="M104.612,212.469l67.9,208.858a3.189,3.189,0,1,1-6.065,1.971l-.021-.065L103.079,212.949a.8.8,0,0,1,1.533-.479Z" transform="translate(-89.567 -211.915)" fill="#8d786a"/>
      <path id="Path_760" data-name="Path 760" d="M109.049,291.217a25.161,25.161,0,0,1,14.4,2.079,36.009,36.009,0,0,1,11.56,9.292,70.179,70.179,0,0,1,5.842,7.961,2.167,2.167,0,1,1-3.759,2.146l0-.007a66.436,66.436,0,0,0-4.729-8.034,33.466,33.466,0,0,0-9.81-9.675,24.027,24.027,0,0,0-13.469-3.307.228.228,0,0,1-.233-.224A.232.232,0,0,1,109.049,291.217Z" transform="translate(-88.221 -193.569)" fill="#8d786a"/>
      <path id="Path_761" data-name="Path 761" d="M92.311,237.752c6.709-.695,12.516.41,18.549,4.79,5.2,3.761,9.447,9.3,12.855,14.766a1.71,1.71,0,1,1-2.9,1.809c-.022-.036-.043-.073-.064-.11l0-.01c-2.8-5.377-6.423-10.982-11.081-14.932-5.379-4.58-10.8-6.027-17.323-5.858a.228.228,0,0,1-.031-.455Z" transform="translate(-92.106 -205.964)" fill="#8d786a"/>
      <path id="Path_762" data-name="Path 762" d="M142.049,265.229a23.047,23.047,0,0,0-10.564,14.815,40.823,40.823,0,0,0-1.051,9.237,71.774,71.774,0,0,0,.6,9.345v0a1.6,1.6,0,1,1-3.166.4c0-.037-.009-.078-.011-.113a74.359,74.359,0,0,1,.075-9.746,42.959,42.959,0,0,1,1.8-9.619,25.837,25.837,0,0,1,4.571-8.642,24.953,24.953,0,0,1,7.512-6.069.228.228,0,0,1,.234.391Z" transform="translate(-83.838 -199.641)" fill="#8d786a"/>
    </g>
    <path id="Path_763" data-name="Path 763" d="M180.16,319.915c5.41-11.111-7.4-25.482-.966-36.033,4-6.552,14.223-8.776,15.5-16.344.379-2.255-.184-4.546-.46-6.816a27.3,27.3,0,0,1,34.285-29.646l0,0,.031.014.033.009v0c8.273,3.286,15.125,11,17.022,19.694a27.793,27.793,0,0,1-6.993,24.741c-1.584,1.65-3.41,3.143-4.461,5.175-3.525,6.817,3.314,14.738,2.575,22.376-1.19,12.3-20.066,16.1-22.413,28.23-.62,3.2.07,6.493.074,9.753.017,14.23-15.664,26.153-29.372,22.33l-.7-.234c-13.256-5.177-18.634-24.127-10.072-35.494C176.2,325.065,178.732,322.846,180.16,319.915Z" transform="translate(19.755 36.876)" fill="#8d786a"/>
    <g id="Group_259" data-name="Group 259" transform="translate(190.121 268.225)">
      <path id="Path_764" data-name="Path 764" d="M227.633,231.554,170.456,396.861a2.54,2.54,0,0,0,4.8,1.661l.019-.053,53.571-166.509a.639.639,0,0,0-1.212-.405Z" transform="translate(-170.316 -231.124)" fill="#8d786a"/>
      <path id="Path_765" data-name="Path 765" d="M216.806,294.207a20.051,20.051,0,0,0-11.5,1.439,28.7,28.7,0,0,0-9.344,7.228,56,56,0,0,0-4.77,6.253,1.726,1.726,0,0,0,2.873,1.913,1.663,1.663,0,0,0,.087-.148l0-.006a52.843,52.843,0,0,1,3.885-6.328A26.649,26.649,0,0,1,206,297a19.132,19.132,0,0,1,10.774-2.432.181.181,0,0,0,.031-.361Z" transform="translate(-165.538 -216.545)" fill="#8d786a"/>
      <path id="Path_766" data-name="Path 766" d="M230.858,251.88a20,20,0,0,0-11.433,1.561c-5.835,2.718-10.36,8.148-13.864,13.545a1.362,1.362,0,1,0,2.336,1.4l0-.007c2.905-5.331,6.779-10.828,12.091-13.822a19.213,19.213,0,0,1,10.836-2.311.181.181,0,0,0,.031-.361Z" transform="translate(-162.189 -226.357)" fill="#8d786a"/>
      <path id="Path_767" data-name="Path 767" d="M188.168,273.049a19.26,19.26,0,0,1,5.353,5.173c2.808,4.1,3.568,9.206,3.537,14.153a56.835,56.835,0,0,1-.615,7.432v0a1.271,1.271,0,1,0,2.516.362c0-.03.007-.062.01-.091a59.531,59.531,0,0,0,.086-7.762c-.343-5.231-1.549-10.551-4.8-14.634a19.9,19.9,0,0,0-5.89-4.944.182.182,0,0,0-.193.308Z" transform="translate(-166.192 -221.472)" fill="#8d786a"/>
    </g>
    <path id="Path_768" data-name="Path 768" d="M195.266,307.323c-2.025-15.385,18.945-27.408,15.473-42.53-2.156-9.393-13.45-16.107-11.961-25.628.444-2.836,2.024-5.341,3.256-7.934a34.279,34.279,0,0,0-29.051-48.937v-.006l-.042,0-.043,0v.006c-11.16.625-22.386,7.087-28.1,16.691a34.9,34.9,0,0,0-1.507,32.246c1.232,2.593,2.813,5.1,3.256,7.934,1.49,9.521-9.8,16.235-11.961,25.628-3.472,15.122,17.5,27.146,15.473,42.53-.535,4.057-2.665,7.705-3.966,11.586-5.677,16.942,8.261,37.374,26.106,38.27h.928c17.846-.9,31.782-21.328,26.1-38.27C197.931,315.028,195.8,311.38,195.266,307.323Z" transform="translate(11.423 25.768)" fill="#f4f4f4"/>
    <g id="Group_260" data-name="Group 260" transform="translate(161.356 208.437)">
      <path id="Path_769" data-name="Path 769" d="M167.013,183.39,169.4,403a3.189,3.189,0,1,1-6.377.068V403l2.385-219.607a.8.8,0,0,1,1.605,0Z" transform="translate(-143.244 -182.597)" fill="#8d786a"/>
      <path id="Path_770" data-name="Path 770" d="M147.242,259.851a25.167,25.167,0,0,1,13.119,6.286,36.025,36.025,0,0,1,8.256,12.322,70.4,70.4,0,0,1,3.2,9.344,2.167,2.167,0,1,1-4.228.925v-.009a66.483,66.483,0,0,0-2.112-9.08A33.459,33.459,0,0,0,159,267.473a24.017,24.017,0,0,0-11.865-7.179.228.228,0,0,1,.106-.444Z" transform="translate(-146.969 -164.671)" fill="#8d786a"/>
      <path id="Path_771" data-name="Path 771" d="M147.242,203.836a25.093,25.093,0,0,1,13,6.405,35.726,35.726,0,0,1,8.058,12.322,69.728,69.728,0,0,1,3.072,9.32,1.71,1.71,0,0,1-3.311.859c-.011-.042-.02-.084-.027-.126l0-.01a66.776,66.776,0,0,0-2.236-9.1,33.7,33.7,0,0,0-6.669-12.165,24.132,24.132,0,0,0-11.987-7.06.228.228,0,0,1,.106-.442Z" transform="translate(-146.969 -177.67)" fill="#8d786a"/>
      <path id="Path_772" data-name="Path 772" d="M188.379,244.168a23.044,23.044,0,0,0-14.509,10.983c-3.138,5.186-4.9,11.633-5.984,17.6v0a1.6,1.6,0,0,1-3.141-.569c.006-.037.016-.076.025-.112,1.579-6.163,3.9-12.727,7.575-17.918a25.842,25.842,0,0,1,6.945-6.881,24.963,24.963,0,0,1,8.982-3.547.228.228,0,0,1,.107.442Z" transform="translate(-142.85 -168.413)" fill="#8d786a"/>
    </g>
    <path id="Vector_23" data-name="Vector 23" d="M193.585,353.885H141.378a6.954,6.954,0,0,0-6.773,7.864l7.036,60.3a6.9,6.9,0,0,0,6.771,6.187h38.136a6.9,6.9,0,0,0,6.773-6.187l7.036-60.3A6.954,6.954,0,0,0,193.585,353.885Z" transform="translate(11.506 65.588)" fill="#d8d8d8"/>
    <path id="Path_773" data-name="Path 773" d="M439.306,349.406c17-2.492,21.979-27.953,38.274-18.512-17.654,33.257-24.864,44.765-24.864,44.765-3.807-2.045-14.419-4.119-17.574-6.748Z" transform="translate(81.257 59.768)" fill="#64ad64"/>
    <path id="Path_774" data-name="Path 774" d="M478.775,371.763,504.2,423.5a3.514,3.514,0,0,0,3.019,2.207h0c2.241,0,3.952-2.76,3.6-5.81l-5.536-48.129Z" transform="translate(91.382 69.736)" fill="#373737"/>
    <path id="Path_775" data-name="Path 775" d="M555.763,386.937H259.021a12.506,12.506,0,0,1-12.505-12.505h0a12.506,12.506,0,0,1,12.505-12.505H555.763a12.5,12.5,0,0,1,12.505,12.505h0A12.506,12.506,0,0,1,555.763,386.937Z" transform="translate(37.487 67.454)" fill="#3d3d3d"/>
    <path id="Path_776" data-name="Path 776" d="M314.949,384.988,254.618,274.516a9.04,9.04,0,0,0-9.434-4.738H168.473L235.652,398.6h64.907a8.781,8.781,0,0,0,9.813.409l1.21-.738A10.033,10.033,0,0,0,314.949,384.988Z" transform="translate(19.377 46.042)" fill="#3d3d3d"/>
    <g id="Group_268" data-name="Group 268" transform="translate(271.928 274.349)">
      <g id="Group_263" data-name="Group 263" transform="translate(0 12.271)">
        <g id="Group_262" data-name="Group 262">
          <g id="Group_261" data-name="Group 261">
            <path id="Path_777" data-name="Path 777" d="M320.174,251.956l-8.706-5.9c-2.846,2.8-13.583,25.258-22.683,40.089-17.41,1.456-44.176,7.3-48.692,11.169,0,0-6.712,4.694-1.212,13.018,4.91,7.428,15.9,3.736,15.9,3.736s46.747-10.925,50.636-16.5C313.587,285.844,318.6,259.392,320.174,251.956Z" transform="translate(-236.716 -246.054)" fill="#fa9490"/>
          </g>
        </g>
      </g>
      <g id="Group_267" data-name="Group 267" transform="translate(74.753)">
        <g id="Group_266" data-name="Group 266">
          <g id="Group_265" data-name="Group 265">
            <g id="Group_264" data-name="Group 264">
              <path id="Path_778" data-name="Path 778" d="M314.568,254.019c-3.46.035-7.639-1.886-9.125,1.14l-8.054-6.793c3.736-9.955,21.928-12.01,23.345-12.062,3.684-.137,5.406-.429,5.667.075s1,3.817-4.359,4.187c-6.718.463-2.555,6.027,11.251,1.631,3.456-1.1,9.757.874,7.322,3.237C337.933,248.035,330.309,253.856,314.568,254.019Z" transform="translate(-297.389 -236.094)" fill="#fa9490"/>
            </g>
          </g>
        </g>
      </g>
    </g>
    <g id="Group_271" data-name="Group 271" transform="translate(271.382 288.171)">
      <g id="Group_270" data-name="Group 270">
        <g id="Group_269" data-name="Group 269">
          <path id="Path_779" data-name="Path 779" d="M321.559,253.446l-11.169-6.133c-2.846,2.8-12.4,23.707-21.5,38.537.684-.064-46.051,3.314-50.833,7.2,0,0-4.571,8.661.929,16.985,4.91,7.428,15.9,3.736,15.9,3.736s47.164-4.961,51.052-10.538C314.108,291.517,319.986,260.882,321.559,253.446Z" transform="translate(-236.273 -247.313)" fill="#488949"/>
        </g>
      </g>
    </g>
    <path id="Path_780" data-name="Path 780" d="M295.822,329.231s51.9-27.117,72.969-30.4c17.888,4.4,71.487,46.35,71.487,46.35l-147.368-.52Z" transform="translate(48.253 52.812)" fill="#4b4b4b"/>
    <path id="Path_781" data-name="Path 781" d="M278.77,329.433s83.872-14.117,101.9-9.381c18.614,4.892,45.461,15.983,99.658,29.363L473.557,374.6s-60.9-8.765-91.226-22.22c-59.77,23.039-99.319,22.6-99.319,22.6Z" transform="translate(44.971 57.511)" fill="#404040"/>
    <path id="Path_782" data-name="Path 782" d="M219.291,288.94c-11.065,5.034-17.555,7.343-13.3,20.765s7.376,53.834,94.593,73.914c13.1-19.082,19.293-49.294,19.293-49.294s-34.123-15.747-41.247-30.4-19.353-20.78-31.306-21.577C236.265,281.616,224.038,286.78,219.291,288.94Z" transform="translate(27.777 48.972)" fill="#549f55"/>
    <path id="Path_783" data-name="Path 783" d="M203.793,270.941c7.336,16.023,23.484,24.34,36.068,18.578s16.838-23.421,9.5-39.443S225.88,225.735,213.3,231.5,196.457,254.918,203.793,270.941Z" transform="translate(26.739 36.764)" fill="#fa9490"/>
    <path id="Path_784" data-name="Path 784" d="M235.88,251.537a2.408,2.408,0,1,0,.439-3.376A2.407,2.407,0,0,0,235.88,251.537Z" transform="translate(34.903 40.938)"/>
    <path id="Path_785" data-name="Path 785" d="M221.564,258.274a2.605,2.605,0,1,0,.473-3.653A2.606,2.606,0,0,0,221.564,258.274Z" transform="translate(31.571 42.428)"/>
    <path id="Path_786" data-name="Path 786" d="M232.975,254.065c3.376,2.4,7.589,5.3,7.589,5.3s.233,3.915-4.263,5.837c1.584-1.583,2.94-3.653,1.1-5.879S232.975,254.065,232.975,254.065Z" transform="translate(34.344 42.424)" fill="#e68884"/>
    <g id="Group_272" data-name="Group 272" transform="translate(247.069 292.552)">
      <path id="Path_787" data-name="Path 787" d="M217.79,257.685a1.212,1.212,0,0,1-.419-.054,1.235,1.235,0,0,1-.807-1.435c.361-1.8,1.965-5.133,5.576-5.325a1.2,1.2,0,0,1,1.263,1.275,1.224,1.224,0,0,1-1.156,1.125c-2.691.16-3.33,3.4-3.336,3.436A1.2,1.2,0,0,1,217.79,257.685Z" transform="translate(-216.538 -250.869)" fill="#373737"/>
    </g>
    <g id="Group_273" data-name="Group 273" transform="translate(266.969 283.589)">
      <path id="Path_788" data-name="Path 788" d="M233.74,247.518a1,1,0,0,1-.935-1.464,4.94,4.94,0,0,1,2.973-2.351,5.111,5.111,0,0,1,4.2,1.1,1.021,1.021,0,0,1,.354,1.246,1,1,0,0,1-1.5.4,3.259,3.259,0,0,0-2.6-.791,2.888,2.888,0,0,0-1.658,1.331A1,1,0,0,1,233.74,247.518Z" transform="translate(-232.69 -243.595)" fill="#373737"/>
    </g>
    <path id="Path_789" data-name="Path 789" d="M194.285,261.872c-6.3-15.478,8.452-26.525,8.452-26.525s-3.63-.148-4.31-5.2a13.369,13.369,0,0,0,8.4-.59c17.643-7.378,30.013-7.894,30.387-.208.133,2.735,11.9.283,11.8,18.731.007-1.3-5.571-8.3-9.612-8.856s.806,4.252-7.507,5.809c-8.389,1.571-14.7-.176-19.624,4.837-3.834,4.35-2.905,30.815-1.52,30.531C205.926,281.387,197.052,268.673,194.285,261.872Z" transform="translate(25.003 35.401)" fill="#373737"/>
    <g id="Group_275" data-name="Group 275" transform="translate(223.598 303.986)">
      <path id="Path_790" data-name="Path 790" d="M207.485,261.093c3.707,1.851,5.485,5.81,3.97,8.845s-5.748,3.993-9.455,2.141-5.485-5.81-3.971-8.845S203.778,259.241,207.485,261.093Z" transform="translate(-197.488 -260.15)" fill="#fa9490"/>
      <g id="Group_274" data-name="Group 274" transform="translate(3.991 3.328)">
        <path id="Path_791" data-name="Path 791" d="M206.615,269.338a.882.882,0,0,0,.261-.324,4.094,4.094,0,0,0-.679-4.985,4.371,4.371,0,0,0-4.952-.7.937.937,0,0,0-.466,1.127.907.907,0,0,0,1.3.482,2.584,2.584,0,0,1,2.882.419,2.306,2.306,0,0,1,.3,2.841.937.937,0,0,0,.285,1.173A.906.906,0,0,0,206.615,269.338Z" transform="translate(-200.728 -262.851)" fill="#e68884"/>
      </g>
    </g>
    <g id="Group_276" data-name="Group 276" transform="translate(261.288 308.836)">
      <path id="Path_792" data-name="Path 792" d="M232.945,270.279a18.224,18.224,0,0,1-4.374-1.469.832.832,0,0,1-.435-1.047.8.8,0,0,1,1.083-.419c3.405,1.613,6.407,1.973,8.918,1.071a8.359,8.359,0,0,0,4.428-3.867.8.8,0,0,1,1.453.673,9.843,9.843,0,0,1-5.31,4.692A10.817,10.817,0,0,1,232.945,270.279Z" transform="translate(-228.08 -264.086)" fill="#e68884"/>
    </g>
    <path id="Path_793" data-name="Path 793" d="M207.192,269.047c1.064,5.341,7.453,17.491,14.247,25.147a10.028,10.028,0,0,0,10.339,2.966c.131-.039.26-.078.387-.118a10.092,10.092,0,0,0,5.773-14.733,9.82,9.82,0,0,1-1.561-3.781C229.559,276.343,207.192,269.047,207.192,269.047Z" transform="translate(28.361 45.901)" fill="#fa9490"/>
    <path id="Path_794" data-name="Path 794" d="M227.763,402.089l-66.17-116.933a9.833,9.833,0,0,1,3.6-13.433l1.089-.63a9.832,9.832,0,0,1,13.432,3.6l65.323,113.142a9.833,9.833,0,0,1-3.6,13.432l-1.09.63C235.646,404.612,230.479,406.791,227.763,402.089Z" transform="translate(17.474 46.07)" fill="#373737"/>
    <path id="Path_795" data-name="Path 795" d="M480.7,386.937H226.623a12.506,12.506,0,0,1-12.505-12.505h0a12.5,12.5,0,0,1,12.505-12.505H480.7A12.5,12.5,0,0,1,493.2,374.431h0A12.506,12.506,0,0,1,480.7,386.937Z" transform="translate(29.969 67.454)" fill="#373737"/>
    <path id="Path_796" data-name="Path 796" d="M243.627,371.763,218.2,423.5a3.517,3.517,0,0,1-3.02,2.207h0c-2.241,0-3.952-2.76-3.6-5.81l5.536-48.129Z" transform="translate(29.369 69.736)" fill="#373737"/>
    <path id="Path_797" data-name="Path 797" d="M411.507,371.763,436.933,423.5a3.514,3.514,0,0,0,3.019,2.207h0c2.241,0,3.952-2.76,3.6-5.81l-5.536-48.129Z" transform="translate(75.773 69.736)" fill="#373737"/>
    <g id="Group_278" data-name="Group 278" transform="translate(334.179 352.901)">
      <g id="Group_277" data-name="Group 277" transform="translate(23.303 7.646)">
        <path id="Path_798" data-name="Path 798" d="M314.822,326.456H308.1a1.942,1.942,0,0,1,0-3.883h4.784V309.941H308.1a1.942,1.942,0,1,1,0-3.883h6.725A1.942,1.942,0,0,1,316.765,308v16.514A1.942,1.942,0,0,1,314.822,326.456Z" transform="translate(-306.156 -306.058)" fill="#8d786a"/>
      </g>
      <rect id="Rectangle_90" data-name="Rectangle 90" width="25.245" height="35.691" rx="2.467" transform="translate(0)" fill="#8d786a"/>
    </g>
    <path id="Path_799" data-name="Path 799" d="M277.359,318.4l5.1-2.84s2.29-7.174,7.076-7.174l.165,7.3s3.938,3.166,13.495-1.975c9.29-1.922,5.223,4.757,8.281,5.294,4.513.791-3.463,9.552-12.726,10.756-11.987,1.556-13.363-.915-13.363-.915l-6.806,2.249Z" transform="translate(44.644 55.03)" fill="#fa9490"/>
    <path id="c" d="M249.045,346.827c12.2-11.723,46.065-28.044,46.065-28.044a25.248,25.248,0,0,1,5.257,14.023c-19.841,28.667-51.194,43.843-64.033,47.354-11.721,3.2-41.748-55.644-30.322-85.258h0C228.6,298.092,249.045,346.827,249.045,346.827Z" transform="translate(27.496 51.901)" fill="#488949"/>
    <path id="Path_800" data-name="Path 800" d="M296.637,301.46s-8.159-3.31-5.634-9.3,11.706-5.2,6.484-13.88c6.3,3.471,7.243,11.2,2.352,13.1S294.7,298.061,296.637,301.46Z" transform="translate(47.697 48.043)" fill="#fff"/>
    <path id="Path_801" data-name="Path 801" d="M302.528,300.2s-5.8-2.354-4.007-6.615,8.324-3.7,4.61-9.87c4.477,2.469,5.151,7.966,1.673,9.313S301.148,297.782,302.528,300.2Z" transform="translate(49.474 49.305)" fill="#fff"/>
    <circle id="Ellipse_20" data-name="Ellipse 20" cx="35.256" cy="35.256" r="35.256" transform="translate(194.068 229.639) rotate(-11.31)" fill="#fff"/>
    <g id="Group_279" data-name="Group 279" transform="translate(198.463 126.166)">
      <path id="Path_802" data-name="Path 802" d="M190.536,258.414c6.306,7.646,15.4,15.16,25.988,12.791,8.047-1.8,13.827-8.717,17.122-15.908,3.235-7.063,5.088-15.792,2.873-23.429a13.541,13.541,0,0,0-5.351-7.748c-3.173-2.075-7.2-2.272-10.838-1.642-5.914,1.025-11.415,3.919-16.413,7.132-4.774,3.069-10.713,6.9-12.811,12.493-3.139,8.366,8.044,11.356,14.112,11.214,8.969-.207,18.746-5.224,18.945-15.257a23.667,23.667,0,0,0-1.715-8.833,17.864,17.864,0,0,0-1.892-4.257,10.762,10.762,0,0,0-3.807-2.98c-3.03-1.552-6.923-2.473-10.275-1.522a5.4,5.4,0,0,0-3.319,2.3c-.93,1.64-.55,4.118-.37,5.9,1.161,11.443,8.86,21.693,17.745,28.524a51.833,51.833,0,0,0,6.9,4.507,25.389,25.389,0,0,0,6.744,2.873,5.106,5.106,0,0,0,6.028-3.546c.97-3.094.261-6.807-.738-9.8-1.041-3.111-2.765-6.361-5.655-8.107-9.4-5.677-20.17-1.708-30.167-.4-5.267.689-10.91.655-15.045-3.085a26.65,26.65,0,0,1-7.519-11.146c-2.765-8.2-.827-17.135,3.334-24.508a45.693,45.693,0,0,1,19.523-18.475,35.569,35.569,0,0,1,13.081-3.614c1.029-.069,2.069.022,3.092-.053,1.069-.079,2.123-.352,3.2-.408a13.32,13.32,0,0,1,4.922.611c4.43,1.5,7.718,6.482,6.192,11.157-.524,1.608-1.6,2.762-3.225,2.611-2.938-.275-7.153-3.115-7.79-5.967-2.051-9.184,6.479-16.291,14.706-17.871a19.367,19.367,0,0,1,12.758,2.087c4.631,2.317,9.456,5.536,14.856,5.273a10.262,10.262,0,0,0,9.492-6.8c1.337-3.793,1.094-7.936,1.923-11.838a9.579,9.579,0,0,1,2.411-5.088c1.657-1.572,3.463-1.2,5.527-.647,4.359,1.158,8.093,3.982,11.5,6.828,6.383,5.338,12.969,12.488,21.895,12.741,3.718.106,8-1.313,11.307-2.956a19.678,19.678,0,0,0,6.89-5.484c6.23-8.044,3.775-20.214-1.1-28.305-1.265-2.1-3.761-5.81-6.673-3.89-1.164.769-1.2,2.208-1.147,3.467a21.584,21.584,0,0,0,.466,3.381,16.791,16.791,0,0,0,2.651,5.749c4.066,6.439,9.685,12.833,17.329,14.846,5.776,1.522,11.851.012,16.784-3.185,9.64-6.248,16.794-18.839,16.452-30.428-.139-4.72-1.953-9.26-6.131-11.769-.582-.35-2.315,0-2.412.827a216.858,216.858,0,0,0,.026,46.753,228.325,228.325,0,0,0,9.746,48.031c1.969,6.038,3.782,12.513,9.3,16.279a16.248,16.248,0,0,0,14.5,1.783c5.452-1.924,8.435-6.187,10.562-11.319,1.825-4.4,2-9.229,2.1-13.934.126-5.794-.139-11.735,1.084-17.436,1.1-5.13,3.777-9.372,9.348-9.976l-1.071-.238c2.311,2.893,2.847,6.584,3.5,10.121a34.254,34.254,0,0,0,3.147,9.628,13.065,13.065,0,0,0,11.526,7.244,15.685,15.685,0,0,0,12.465-6.059c4.281-5.553,3.6-13.323,2.793-19.874-1.061-8.624-3.463-17.02-4.517-25.645-.711-5.83-1.079-12.369,2.12-17.61a6.466,6.466,0,0,1,1.056-1.333c.052-.049.391-.306.278-.209.09-.076.11-.041.041-.048a4.385,4.385,0,0,1,2.334,1.258c2.451,2.282,4.045,5.529,5.431,8.521a92.3,92.3,0,0,1,7.39,24.286,44.842,44.842,0,0,1,.1,10.185,110.861,110.861,0,0,0,.259,18.146,64.817,64.817,0,0,0,2.757,13.841c.955,2.883,2.2,5.972,4.3,8.228a5.793,5.793,0,0,0,5.642,1.993c2.5-.585,4.188-2.654,5.324-4.837,2.025-3.895,2.957-8.352,3.655-12.649.531-3.272.881-6.574,1.129-9.88q.209-2.794.323-5.593c.09-2.152-.376-5.143.664-7.054.694-1.274,1.874-2.909,3.366-3.293,1.271-.329,2.672.378,3.722,1.03a24.215,24.215,0,0,1,6.344,6.526,5.058,5.058,0,0,0,2.8,2.287,9.24,9.24,0,0,0,3.8.379c2.913-.265,5.64-1.5,8.321-2.582,2.706-1.093,5.759-2.39,8.683-1.36a2.181,2.181,0,0,0,1.907-.24c.294-.208.872-.861.225-1.089-4.2-1.48-8.385.1-12.3,1.7a22.941,22.941,0,0,1-6.288,2.016,5.451,5.451,0,0,1-3.175-.537c-.982-.569-1.572-1.784-2.26-2.675-2.336-3.023-5.544-6.7-9.625-7.063a7.541,7.541,0,0,0-5.139,1.48,10.212,10.212,0,0,0-2.139,2.2,9.769,9.769,0,0,0-1.2,1.934,6.319,6.319,0,0,0-.269,2.4c-.2,9.361-.627,19.24-3.54,28.221a16.554,16.554,0,0,1-3.184,6.258,5.878,5.878,0,0,1-.723.657,2.292,2.292,0,0,1-.508.293c-.2.076-.112.1-.414.052a3.514,3.514,0,0,1-.689-.17c-3.764-1.5-5.48-7.273-6.5-10.718a80.99,80.99,0,0,1-2.824-23.659c.036-3.78.541-7.532.625-11.3a36.517,36.517,0,0,0-.708-7.161,98.942,98.942,0,0,0-5.33-18.631c-1.8-4.6-3.976-10.375-7.923-13.607-3.437-2.816-7.21-.679-8.889,2.914a24.9,24.9,0,0,0-2.117,11.924c.288,6.6,1.689,13.077,2.99,19.532,1.316,6.521,2.608,13.145,2.465,19.829-.1,4.747-1.153,9.317-4.91,12.527a10.8,10.8,0,0,1-9.755,2.332c-4.188-1.114-6.55-4.4-8.153-8.194a35.768,35.768,0,0,1-2.269-7.724,30.36,30.36,0,0,0-1.99-7.56c-.375-.8-.975-2.274-1.747-2.72-.755-.436-1.965-.063-2.767.1a13.851,13.851,0,0,0-4.6,1.785c-5.842,3.669-6.61,11.4-6.891,17.654-.324,7.214.627,15.121-1.738,22.07-1.312,3.854-3.235,7.683-6.762,9.946a12.161,12.161,0,0,1-10.805,1.055,15.944,15.944,0,0,1-8.858-8.676,126.214,126.214,0,0,1-5.337-16.02,239.108,239.108,0,0,1-8.677-71.248c.156-5.279.517-10.551,1.133-15.8l-2.412.827c9.578,5.75,5.079,20.553.773,28.162-5.393,9.529-15.983,18.725-27.381,13.152a27.794,27.794,0,0,1-8.526-6.843,49.207,49.207,0,0,1-4.146-5.513,17.63,17.63,0,0,1-2.932-5.972,12.909,12.909,0,0,1-.378-5.27c.027-.127.207-.391.19-.42.108.179-.773.272-1.045.384-.148.06-.08-.087.1.069.2.172.336.2.521.347,2.7,2.136,4.294,6.118,5.394,9.25a27.78,27.78,0,0,1,1.466,14.553,16.19,16.19,0,0,1-9.944,11.883c-3.643,1.522-7.623,2.4-11.483,1.275-4.074-1.183-7.58-3.863-10.785-6.543-6.213-5.194-12.428-11.856-20.914-12.834a8.27,8.27,0,0,0-8.616,4.888c-1.578,3.4-1.52,7.313-2.038,10.96-.591,4.172-2.154,8.813-7.178,8.957-5.3.153-10.142-3.679-14.765-5.767-7.495-3.386-16.342-2.1-23.1,2.455a18.474,18.474,0,0,0-7.126,8.441,13.176,13.176,0,0,0-.83,5.695,13.8,13.8,0,0,0,.5,2.776,4.709,4.709,0,0,0,1.819,2.342c3.488,3,9.46,5.787,13.145,1.433,2.686-3.175,1.72-8.167-.749-11.156a11.616,11.616,0,0,0-6.644-3.811,18.372,18.372,0,0,0-5.011-.277c-2.043.142-4.069.307-6.116.448-16.639,1.151-32.272,13.773-38.121,29.19-2.794,7.369-3.115,15.728.485,22.887a27.581,27.581,0,0,0,8.342,9.927c3.643,2.6,9.276,2.513,13.517,2.107,9.881-.947,20.493-5.575,29.848-.142,2.9,1.687,4.536,5.027,5.494,8.123.872,2.816,1.619,6.514.419,9.353-.405.96-.765,1.425-1.8,1.22-2.367-.474-4.838-1.975-6.914-3.158A51.508,51.508,0,0,1,215.431,249a42.481,42.481,0,0,1-8.555-14.543,30.251,30.251,0,0,1-1.5-7.773c-.076-1.4-.434-3.834,1.109-4.666,2.6-1.4,7.087.562,9.286,1.964,2.812,1.793,3.791,5.022,4.708,8.082,1.377,4.594,1.557,9.785-1.381,13.826-4.449,6.118-14.405,7.371-21,4.417-2.676-1.2-5.107-3.465-4.764-6.641.538-4.989,5.808-8.775,9.548-11.382,4.859-3.387,10.188-6.635,16.009-8.027,3.27-.784,6.824-.808,9.785.966,5.812,3.482,6.5,11.679,5.842,17.714-.844,7.725-3.967,15.757-9.394,21.424a18.326,18.326,0,0,1-8.637,5.363,16.289,16.289,0,0,1-10.869-1.594c-5-2.464-9.073-6.525-12.584-10.783-.607-.737-3.192.221-2.494,1.068Z" transform="translate(-177.087 -115.821)" fill="#4e944f"/>
    </g>
    <g id="Group_280" data-name="Group 280" transform="translate(172.225 481.248)">
      <path id="Path_803" data-name="Path 803" d="M237.843,407.407v7.067h1.924a1.691,1.691,0,0,1,1.69,1.692v.283a1.69,1.69,0,0,1-1.69,1.692H157.759a1.969,1.969,0,0,1-1.968-1.968v-10.18a1.968,1.968,0,0,1,1.968-1.968h82.009a1.691,1.691,0,0,1,1.69,1.692h0a1.691,1.691,0,0,1-1.69,1.69Z" transform="translate(-155.791 -404.025)" fill="#488949"/>
      <path id="Rectangle_91" data-name="Rectangle 91" d="M2.868,0H73.162a0,0,0,0,1,0,0V7.066a0,0,0,0,1,0,0H2.868A2.868,2.868,0,0,1,0,4.2V2.868A2.868,2.868,0,0,1,2.868,0Z" transform="translate(9.133 3.382)" fill="#fff"/>
    </g>
    <g id="Group_281" data-name="Group 281" transform="translate(161.359 465.628)">
      <path id="Path_804" data-name="Path 804" d="M150.587,395.09v7.821h-1.924a1.786,1.786,0,0,0-1.69,1.87v.315a1.787,1.787,0,0,0,1.69,1.87H230.67a2.083,2.083,0,0,0,1.969-2.177V393.525a2.081,2.081,0,0,0-1.969-2.178H148.662a1.788,1.788,0,0,0-1.69,1.871h0a1.788,1.788,0,0,0,1.69,1.871Z" transform="translate(-146.972 -391.347)" fill="#3d3d3d"/>
      <path id="Rectangle_92" data-name="Rectangle 92" d="M3.173,0H73.162a0,0,0,0,1,0,0V7.819a0,0,0,0,1,0,0H3.173A3.173,3.173,0,0,1,0,4.646V3.173A3.173,3.173,0,0,1,3.173,0Z" transform="translate(76.533 11.562) rotate(180)" fill="#fff"/>
    </g>
    <path id="Rectangle_93" data-name="Rectangle 93" d="M3.889,0H76.875a3.889,3.889,0,0,1,3.889,3.889v4.9a3.888,3.888,0,0,1-3.888,3.888H3.889A3.889,3.889,0,0,1,0,8.791v-4.9A3.889,3.889,0,0,1,3.889,0Z" transform="translate(168.043 445.702)" fill="#488949"/>
    <path id="Rectangle_94" data-name="Rectangle 94" d="M2.94,0H77.823a2.941,2.941,0,0,1,2.941,2.941V4.305a2.941,2.941,0,0,1-2.941,2.941H2.941A2.941,2.941,0,0,1,0,4.305V2.94A2.94,2.94,0,0,1,2.94,0Z" transform="translate(173.32 458.382)" fill="#8d786a"/>
    <g id="Group_282" data-name="Group 282" transform="translate(298.064 268.251)">
      <path id="Path_805" data-name="Path 805" d="M259.306,233.1a9.994,9.994,0,0,1,6.2-1.952c5.205,0,7.963,2.832,7.963,6.813,0,2.3-1.11,4.632-3.37,6.968-2.871,3.023-4.938,4.517-6.239,4.517a2.156,2.156,0,0,1-2.182-2.182c0-1.072,1-2.144,2.718-3.713a1.736,1.736,0,0,1,.306-.269c1.953-1.8,2.565-2.794,2.565-4.019a2.275,2.275,0,0,0-2.527-2.374,8.188,8.188,0,0,0-2.449.461,7.878,7.878,0,0,1-2.067.458,2.387,2.387,0,0,1-2.3-2.449A2.894,2.894,0,0,1,259.306,233.1Zm5.245,25.534a3.8,3.8,0,0,1-3.9-3.9,3.744,3.744,0,0,1,3.9-3.6,3.67,3.67,0,0,1,3.6,3.6A3.716,3.716,0,0,1,264.551,258.631Z" transform="translate(-257.929 -231.145)" fill="#fff"/>
    </g>
    <g id="Group_283" data-name="Group 283" transform="translate(252.978 113.333)">
      <path id="Path_806" data-name="Path 806" d="M229.645,122.025a8.31,8.31,0,1,1,8.31-8.31A8.32,8.32,0,0,1,229.645,122.025Zm0-14.331a6.021,6.021,0,1,0,6.021,6.021A6.027,6.027,0,0,0,229.645,107.694Z" transform="translate(-221.335 -105.405)" fill="#f4f4f4"/>
    </g>
    <g id="Group_284" data-name="Group 284" transform="translate(413.354 166.898)">
      <path id="Path_807" data-name="Path 807" d="M359.815,165.5a8.31,8.31,0,1,1,8.31-8.31A8.32,8.32,0,0,1,359.815,165.5Zm0-14.331a6.021,6.021,0,1,0,6.021,6.021A6.028,6.028,0,0,0,359.815,151.17Z" transform="translate(-351.505 -148.881)" fill="#f4f4f4"/>
    </g>
    <g id="Group_285" data-name="Group 285" transform="translate(511.062 113.333)">
      <path id="Path_808" data-name="Path 808" d="M441.179,126.144a10.37,10.37,0,1,1,10.37-10.369A10.38,10.38,0,0,1,441.179,126.144Zm0-17.883a7.514,7.514,0,1,0,7.514,7.514A7.523,7.523,0,0,0,441.179,108.261Z" transform="translate(-430.81 -105.405)" fill="#f4f4f4"/>
    </g>
    <path id="Path_809" data-name="Path 809" d="M224.075,135.4a12.609,12.609,0,1,1-12.609-12.609A12.609,12.609,0,0,1,224.075,135.4Z" transform="translate(26.427 11.963)" fill="#f4f4f4"/>
    <path id="Path_810" data-name="Path 810" d="M464.886,134.459a7.867,7.867,0,1,1-7.867-7.867A7.867,7.867,0,0,1,464.886,134.459Z" transform="translate(84.508 12.844)" fill="#f4f4f4"/>
    <path id="Path_811" data-name="Path 811" d="M292.07,113.6l9.118-.469-7.964,4.465a3.045,3.045,0,0,0-1.534,3.012l1.6,13.517-5.857-12.3a3.047,3.047,0,0,0-2.89-1.732l-8.916.419,7.766-4.4a3.043,3.043,0,0,0,1.522-3.006l-1.6-13.527,5.852,12.288A3.045,3.045,0,0,0,292.07,113.6Z" transform="translate(44.243 6.577)" fill="#f4f4f4"/>
  </g>
</svg>
